<?xml version="1.0" standalone="no"?>
<!DOCTYPE svg PUBLIC "-//W3C//DTD SVG 20010904//EN"
 "http://www.w3.org/TR/2001/REC-SVG-20010904/DTD/svg10.dtd">
<svg version="1.0" xmlns="http://www.w3.org/2000/svg"
 width="256.000000pt" height="256.000000pt" viewBox="0 0 256.000000 256.000000"
 preserveAspectRatio="xMidYMid meet">
<metadata>
Created by potrace 1.11, written by Peter Selinger 2001-2013
</metadata>
<g transform="translate(0.000000,256.000000) scale(0.100000,-0.100000)"
fill="#000000" stroke="none">
<path d="M1165 2474 c-175 -36 -220 -51 -322 -100 -62 -31 -118 -61 -125 -68
-7 -6 -22 -18 -34 -26 -187 -131 -355 -395 -399 -625 -18 -100 -22 -221 -10
-325 7 -63 9 -77 20 -120 3 -11 7 -28 9 -38 19 -83 125 -295 166 -332 3 -3 25
-30 50 -60 69 -84 154 -156 244 -208 63 -35 186 -93 208 -97 12 -3 44 -11 72
-19 218 -60 521 -29 712 75 30 16 56 29 59 29 2 0 44 -40 94 -90 96 -95 135
-121 182 -122 41 -1 45 -13 15 -49 -14 -17 -29 -43 -32 -57 -3 -15 -8 -33 -10
-41 -7 -22 16 -95 39 -119 11 -12 30 -22 42 -22 46 0 89 84 78 152 -5 36 -39
98 -54 98 -23 0 -7 39 22 51 93 38 136 153 95 249 -8 19 -51 71 -95 115 -45
44 -81 84 -81 90 0 6 10 21 23 35 54 61 130 220 161 341 79 301 10 649 -175
886 -145 185 -378 336 -584 378 -113 23 -303 32 -370 19z m120 -224 c3 -6 -1
-7 -9 -4 -18 7 -21 14 -7 14 6 0 13 -4 16 -10z m65 -11 c12 -8 10 -9 -7 -4
-19 5 -22 3 -17 -12 5 -14 4 -15 -4 -3 -19 25 0 38 28 19z m138 -10 c-2 -6 -7
-10 -12 -9 -4 1 -14 -7 -22 -17 -14 -17 -14 -16 -4 5 6 12 15 20 21 17 5 -4 9
-1 9 4 0 6 3 11 6 11 3 0 4 -5 2 -11z m-371 -6 c-10 -3 -14 -9 -10 -16 4 -7
-2 -5 -13 3 -10 8 -20 15 -22 16 -1 0 12 1 30 1 18 0 25 -2 15 -4z m69 -16 c1
-9 -2 -15 -7 -11 -5 3 -7 9 -4 14 3 5 -5 11 -17 13 -22 5 -22 5 1 4 15 -1 25
-9 27 -20z m115 0 c-8 -8 -14 -7 -23 2 -11 10 -9 11 6 5 15 -6 17 -4 11 6 -6
9 -4 11 4 5 9 -5 10 -10 2 -18z m125 -1 c1 -10 0 -11 -3 -2 -2 8 -12 12 -22 9
-10 -3 -21 -1 -24 4 -3 5 7 8 21 7 18 0 28 -7 28 -18z m114 18 c0 -8 -19 -13
-24 -6 -3 5 1 9 9 9 8 0 15 -2 15 -3z m-496 -13 c3 -5 -1 -11 -9 -14 -9 -4
-12 -1 -8 9 6 16 10 17 17 5z m206 -1 c0 -5 -2 -10 -4 -10 -3 0 -8 5 -11 10
-3 6 -1 10 4 10 6 0 11 -4 11 -10z m-165 -18 c-3 -3 -11 0 -18 7 -9 10 -8 11
6 5 10 -3 15 -9 12 -12z m65 8 c0 -5 -2 -10 -4 -10 -3 0 -8 5 -11 10 -3 6 -1
10 4 10 6 0 11 -4 11 -10z m360 0 c0 -5 -4 -10 -10 -10 -5 0 -10 5 -10 10 0 6
5 10 10 10 6 0 10 -4 10 -10z m49 -12 c-12 -23 -21 -24 -12 -1 5 12 3 14 -7 8
-8 -5 -11 -4 -7 2 3 5 13 10 21 10 11 0 13 -5 5 -19z m-551 -13 c-3 -3 -9 2
-12 12 -6 14 -5 15 5 6 7 -7 10 -15 7 -18z m576 14 c-5 -8 1 -10 19 -7 15 3
24 1 21 -3 -7 -12 -41 -12 -48 0 -3 4 -3 11 1 15 10 10 15 7 7 -5z m-519 -9
c3 -5 1 -10 -4 -10 -6 0 -11 5 -11 10 0 6 2 10 4 10 3 0 8 -4 11 -10z m-95 -4
c0 -3 -4 -8 -10 -11 -5 -3 -10 -1 -10 4 0 6 5 11 10 11 6 0 10 -2 10 -4z m17
-15 c0 -11 -5 -18 -9 -15 -4 3 -5 11 -1 19 7 21 12 19 10 -4z m53 5 c0 -2 -7
-7 -16 -10 -8 -3 -12 -2 -9 4 6 10 25 14 25 6z m595 -6 c-3 -5 -12 -10 -18
-10 -7 0 -6 4 3 10 19 12 23 12 15 0z m-665 -27 c0 -3 -7 -3 -15 1 -8 3 -15 0
-15 -6 0 -6 -3 -9 -6 -5 -11 10 6 26 21 20 8 -3 15 -7 15 -10z m690 13 c0 -2
-7 -7 -16 -10 -8 -3 -12 -2 -9 4 6 10 25 14 25 6z m-747 -25 c3 -13 1 -18 -9
-14 -7 2 -10 11 -7 19 7 19 10 18 16 -5z m777 -12 c17 -13 18 -17 5 -10 -33
17 -51 31 -40 31 6 0 21 -10 35 -21z m34 9 c-3 -4 -11 -5 -19 -1 -21 7 -19 12
4 10 11 0 18 -5 15 -9z m-859 -8 c-3 -5 2 -10 11 -10 10 0 15 -3 11 -6 -10
-10 -39 5 -32 16 3 5 8 10 11 10 3 0 2 -4 -1 -10z m884 -28 c-1 -15 -2 -15 -6
1 -2 9 -9 14 -15 11 -7 -4 -8 -2 -4 5 10 15 26 4 25 -17z m-898 1 c13 -17 13
-17 -6 -3 -11 8 -22 16 -24 17 -2 2 0 3 6 3 6 0 17 -8 24 -17z m933 2 c3 -8 1
-15 -4 -15 -6 0 -10 7 -10 15 0 8 2 15 4 15 2 0 6 -7 10 -15z m-988 -27 c5 -7
3 -8 -6 -3 -10 6 -12 4 -7 -8 3 -10 2 -17 -3 -17 -11 0 -13 23 -3 33 9 9 11 9
19 -5z m1010 3 c-4 -5 -1 -11 6 -13 7 -3 5 -7 -6 -11 -10 -4 -15 -3 -11 3 3 6
0 10 -7 10 -9 0 -9 3 2 10 19 12 23 12 16 1z m-956 -5 c0 -3 -4 -8 -10 -11 -5
-3 -10 -1 -10 4 0 6 5 11 10 11 6 0 10 -2 10 -4z m917 -2 c-3 -3 -12 -4 -19
-1 -8 3 -5 6 6 6 11 1 17 -2 13 -5z m-942 -23 c3 -5 0 -13 -6 -17 -7 -4 -9 -3
-5 4 3 5 0 13 -6 15 -9 4 -10 6 -1 6 6 1 14 -3 18 -8z m1023 -16 c-3 -3 -9 2
-12 12 -6 14 -5 15 5 6 7 -7 10 -15 7 -18z m-63 5 c3 -5 1 -10 -4 -10 -6 0
-11 5 -11 10 0 6 2 10 4 10 3 0 8 -4 11 -10z m36 -22 c-10 -11 -11 -9 -5 6 6
15 4 17 -6 11 -9 -6 -11 -4 -5 4 5 9 10 10 18 2 8 -8 7 -14 -2 -23z m-1052 9
c8 -10 7 -14 -4 -14 -8 0 -12 4 -9 8 2 4 -2 10 -8 12 -8 4 -9 6 -2 6 6 1 17
-5 23 -12z m-42 -4 c-4 -3 1 -11 10 -18 13 -9 13 -14 3 -20 -9 -5 -11 -4 -6 3
4 7 1 12 -8 12 -9 0 -16 4 -16 8 0 10 11 22 18 22 3 0 2 -3 -1 -7z m1141 -10
c-3 -17 -38 -28 -38 -11 0 6 7 8 15 4 9 -3 15 0 15 9 0 8 3 15 6 15 3 0 4 -7
2 -17z m36 -9 c3 -8 2 -12 -4 -9 -6 3 -10 10 -10 16 0 14 7 11 14 -7z m-1128
-41 c-3 -4 -6 -1 -6 6 0 7 -4 9 -10 6 -6 -4 -7 1 -3 11 6 15 7 15 15 -1 6 -9
7 -19 4 -22z m1048 22 c3 -8 1 -15 -4 -15 -6 0 -10 7 -10 15 0 8 2 15 4 15 2
0 6 -7 10 -15z m-1134 -5 c0 -5 -5 -10 -11 -10 -5 0 -7 5 -4 10 3 6 8 10 11
10 2 0 4 -4 4 -10z m1200 -5 c0 -8 -2 -15 -4 -15 -2 0 -6 7 -10 15 -3 8 -1 15
4 15 6 0 10 -7 10 -15z m-27 -8 c7 3 9 2 4 -2 -4 -5 -17 -10 -28 -12 -16 -2
-18 -1 -7 11 7 8 15 10 16 5 2 -5 9 -6 15 -2z m-1133 -7 c0 -5 -8 -6 -17 -3
-16 6 -17 5 -3 -13 14 -18 14 -18 -2 -5 -10 7 -15 17 -12 22 7 12 34 11 34 -1z
m33 -14 c7 3 4 -1 -5 -9 -10 -8 -14 -18 -10 -22 4 -5 2 -5 -5 -2 -6 4 -9 17
-5 29 3 12 7 17 10 10 2 -7 9 -10 15 -6z m1112 -6 c-3 -5 -12 -10 -18 -10 -7
0 -6 4 3 10 19 12 23 12 15 0z m35 0 c0 -5 -4 -10 -10 -10 -5 0 -10 5 -10 10
0 6 5 10 10 10 6 0 10 -4 10 -10z m-1203 -41 c1 -20 1 -21 -3 -3 -4 15 -11 20
-23 17 -10 -3 -21 -1 -24 4 -3 5 7 8 21 7 21 0 27 -6 29 -25z m83 21 c0 -5 -2
-10 -4 -10 -3 0 -8 5 -11 10 -3 6 -1 10 4 10 6 0 11 -4 11 -10z m1055 -1 c11
-16 1 -19 -13 -3 -7 8 -8 14 -3 14 5 0 13 -5 16 -11z m105 -15 c0 -8 -4 -14
-10 -14 -5 0 -6 8 -3 18 6 15 5 15 -10 3 -10 -7 -17 -9 -17 -3 0 12 21 22 33
15 4 -2 7 -11 7 -19z m-63 1 c0 -8 -4 -15 -9 -15 -4 0 -8 7 -8 15 0 8 4 15 8
15 5 0 9 -7 9 -15z m-1237 -5 c0 -5 -4 -10 -10 -10 -5 0 -10 5 -10 10 0 6 5
10 10 10 6 0 10 -4 10 -10z m140 -5 c0 -1 -12 -2 -26 -2 -17 0 -22 2 -13 7 10
7 39 3 39 -5z m1033 -2 c-5 -12 -3 -14 7 -8 9 5 11 4 6 -4 -4 -6 -12 -9 -17
-6 -12 8 -12 35 1 35 5 0 6 -7 3 -17z m162 -14 c-4 -5 -14 -8 -23 -8 -15 1
-15 2 1 6 9 2 14 9 11 15 -4 7 -2 8 5 4 6 -4 9 -12 6 -17z m-1362 -8 c-2 -6 6
-11 17 -11 11 0 19 5 18 12 -2 6 5 14 15 16 9 2 17 -1 17 -7 0 -6 -7 -8 -15
-4 -10 3 -15 0 -13 -8 2 -9 -6 -14 -19 -14 -13 0 -23 4 -22 9 0 5 -5 13 -13
18 -10 8 -10 9 2 5 8 -2 14 -10 13 -16z m98 -4 c-10 -9 -11 -8 -5 6 3 10 9 15
12 12 3 -3 0 -11 -7 -18z m1142 -12 c-9 -16 -10 -16 -16 -1 -5 12 -3 15 5 10
8 -5 9 -1 4 12 -5 14 -4 16 4 7 8 -7 9 -17 3 -28z m41 8 c-1 -26 -34 -49 -34
-24 0 6 7 7 17 4 11 -4 14 -3 9 6 -4 6 -5 18 -2 26 8 22 12 18 10 -12z m-1138
-9 c2 -23 1 -24 -11 -7 -10 13 -10 20 -2 25 7 4 12 8 12 8 0 0 1 -11 1 -26z
m25 3 c-10 -9 -11 -8 -5 6 3 10 9 15 12 12 3 -3 0 -11 -7 -18z m1149 19 c0 -2
-7 -7 -16 -10 -8 -3 -12 -2 -9 4 6 10 25 14 25 6z m-125 -16 c3 -5 1 -10 -4
-10 -6 0 -11 5 -11 10 0 6 2 10 4 10 3 0 8 -4 11 -10z m195 -15 c14 -19 14
-19 -2 -6 -10 7 -18 18 -18 24 0 6 1 8 3 6 1 -2 9 -13 17 -24z m-1294 2 c8 3
14 1 14 -5 0 -14 -33 -8 -36 7 -1 6 0 7 2 2 3 -6 12 -7 20 -4z m1274 -13 c0
-2 -9 0 -20 6 -11 6 -20 13 -20 16 0 2 9 0 20 -6 11 -6 20 -13 20 -16z m-43
-15 c2 -18 1 -20 -6 -9 -5 8 -8 17 -5 21 2 4 -1 10 -6 12 -6 3 -5 4 1 3 7 -1
14 -13 16 -27z m-1360 3 c0 -10 -6 -19 -13 -19 -9 0 -9 5 -1 19 7 10 13 18 14
18 1 0 1 -8 0 -18z m159 -4 c-3 -24 -28 -32 -32 -10 -1 7 0 8 3 2 5 -12 24
-14 22 -2 -2 14 1 32 6 32 3 0 3 -10 1 -22z m-139 -10 c-3 -8 -6 -5 -6 6 -1
11 2 17 5 13 3 -3 4 -12 1 -19z m77 7 c-4 -8 -8 -15 -10 -15 -2 0 -4 7 -4 15
0 8 4 15 10 15 5 0 7 -7 4 -15z m108 8 c-6 -2 -10 -9 -7 -13 3 -5 -5 -14 -17
-20 -22 -11 -22 -10 -4 4 11 9 16 16 12 16 -4 0 -4 5 -1 10 3 6 12 10 18 9 9
0 8 -2 -1 -6z m36 -18 c-3 -3 -9 2 -12 12 -6 14 -5 15 5 6 7 -7 10 -15 7 -18z
m992 9 c0 -2 -7 -4 -15 -4 -8 0 -15 4 -15 10 0 5 7 7 15 4 8 -4 15 -8 15 -10z
m55 -14 c5 1 11 -4 13 -12 3 -11 2 -11 -6 0 -5 8 -13 13 -18 12 -5 0 -10 7
-11 17 -3 17 -2 17 5 0 4 -10 12 -18 17 -17z m55 -5 c0 -5 -5 -3 -10 5 -5 8
-10 20 -10 25 0 6 5 3 10 -5 5 -8 10 -19 10 -25z m-1280 15 c0 -5 -4 -10 -10
-10 -5 0 -10 5 -10 10 0 6 5 10 10 10 6 0 10 -4 10 -10z m156 -16 c-3 -9 -3
-21 1 -27 4 -7 9 -3 14 9 6 16 8 16 8 2 1 -23 -14 -31 -28 -14 -10 12 -6 46 6
46 3 0 2 -7 -1 -16z m1038 0 c3 -8 2 -12 -4 -9 -6 3 -10 10 -10 16 0 14 7 11
14 -7z m-49 -27 c4 4 5 2 0 -6 -7 -12 -10 -11 -20 2 -7 9 -15 14 -19 10 -4 -4
-4 1 0 11 7 17 8 17 19 -3 6 -12 15 -18 20 -14z m202 19 c-10 -8 -17 -16 -15
-19 2 -3 -1 -9 -6 -14 -5 -5 -6 -3 -2 5 4 7 2 12 -6 12 -7 1 -2 7 12 15 32 18
40 18 17 1z m-1407 -6 c0 -5 -4 -10 -10 -10 -5 0 -10 5 -10 10 0 6 5 10 10 10
6 0 10 -4 10 -10z m40 6 c0 -2 -7 -7 -16 -10 -8 -3 -12 -2 -9 4 6 10 25 14 25
6z m40 -6 c0 -5 -4 -10 -10 -10 -5 0 -10 5 -10 10 0 6 5 10 10 10 6 0 10 -4
10 -10z m40 0 c0 -5 -4 -10 -10 -10 -5 0 -10 5 -10 10 0 6 5 10 10 10 6 0 10
-4 10 -10z m1112 -10 c-2 -8 3 -10 13 -7 8 4 15 2 15 -4 0 -6 -7 -9 -16 -7 -8
2 -14 7 -14 12 1 5 -4 13 -12 18 -10 8 -10 9 2 5 8 -2 14 -10 12 -17z m124 4
c-3 -16 -24 -34 -41 -33 -5 0 1 6 15 14 14 8 21 14 17 15 -5 0 -5 5 -2 10 9
15 14 12 11 -6z m92 -7 c14 4 14 3 2 -5 -16 -12 -30 -7 -29 11 0 9 2 9 5 0 3
-7 13 -9 22 -6z m-1483 -6 c3 -5 2 -12 -3 -15 -5 -3 -9 1 -9 9 0 17 3 19 12 6z
m91 -9 c1 -7 0 -8 -3 -2 -2 5 -9 10 -14 10 -6 0 -7 -5 -3 -12 4 -7 3 -8 -5 -4
-14 9 -4 29 12 23 6 -2 12 -9 13 -15z m77 3 c-3 -9 -8 -14 -10 -11 -3 3 -2 9
2 15 9 16 15 13 8 -4z m61 -17 c1 -14 -2 -24 -7 -21 -5 3 -7 14 -4 24 3 12 -2
19 -17 23 -18 4 -17 4 3 3 19 -2 25 -8 25 -29z m64 6 c0 -17 -3 -22 -8 -13 -5
6 -6 18 -3 26 8 19 11 16 11 -13z m899 -5 c1 -23 1 -23 -4 -1 -2 12 -8 20 -13
17 -5 -3 -11 -1 -14 4 -4 5 2 8 11 7 11 -2 19 -12 20 -27z m141 5 c0 -17 -3
-22 -8 -13 -5 6 -6 18 -3 26 8 19 11 16 11 -13z m-1285 3 c3 -8 2 -20 -3 -26
-5 -9 -7 -4 -7 13 0 29 2 32 10 13z m87 -2 c0 -8 -4 -15 -10 -15 -5 0 -7 7 -4
15 4 8 8 15 10 15 2 0 4 -7 4 -15z m60 -9 c0 -20 -17 -29 -26 -15 -5 8 -3 9 6
4 10 -6 12 -4 7 8 -3 10 -2 17 3 17 6 0 10 -6 10 -14z m135 3 c-3 -4 2 -9 10
-12 8 -4 12 -15 10 -27 -3 -16 0 -20 10 -16 8 3 15 1 15 -5 0 -6 -8 -9 -17 -7
-11 2 -18 12 -17 26 1 12 -4 22 -11 22 -7 0 -15 6 -18 13 -3 8 1 14 9 14 7 0
11 -4 9 -8z m825 7 c0 -2 -7 -7 -16 -10 -8 -3 -12 -2 -9 4 6 10 25 14 25 6z
m120 -11 c0 -1 -12 -2 -26 -2 -17 0 -22 2 -13 7 10 7 39 3 39 -5z m150 0 c0
-1 -12 -2 -26 -2 -17 0 -22 2 -13 7 10 7 39 3 39 -5z m36 0 c4 -8 10 -12 15
-9 5 3 12 -2 15 -10 3 -9 10 -13 15 -10 5 3 6 -3 2 -12 -5 -13 -3 -15 7 -9 9
6 11 4 5 -5 -6 -10 -11 -9 -22 5 -7 11 -13 23 -13 28 0 4 -4 6 -8 3 -5 -3 -16
4 -25 15 -9 10 -12 19 -7 19 6 0 13 -7 16 -15z m-1206 -6 c0 -5 5 -7 12 -3 7
4 8 3 4 -5 -6 -9 -11 -9 -22 0 -17 14 -18 19 -4 19 6 0 10 -5 10 -11z m1055 2
c3 -6 -4 -15 -15 -21 -13 -7 -20 -7 -20 0 0 5 7 10 16 10 8 0 12 5 9 10 -3 6
-4 10 -1 10 3 0 7 -4 11 -9z m-1315 -11 c0 -5 -2 -10 -4 -10 -3 0 -8 5 -11 10
-3 6 -1 10 4 10 6 0 11 -4 11 -10z m114 -18 c0 -14 5 -20 18 -19 10 1 18 7 18
14 0 7 5 13 10 13 7 0 7 -6 1 -19 -14 -26 -57 -23 -53 4 2 15 -3 21 -18 21
-27 0 -22 -26 10 -48 14 -10 21 -18 15 -18 -17 1 -49 29 -51 47 -4 24 2 30 28
28 16 -1 23 -8 22 -23z m1066 18 c0 -5 -7 -6 -17 -3 -12 5 -14 3 -8 -7 5 -9 4
-11 -4 -6 -6 4 -9 12 -6 17 8 12 35 12 35 -1z m36 -16 c-3 -15 -8 -29 -11 -32
-3 -3 -3 5 -1 19 2 13 5 27 5 32 1 4 3 7 6 7 3 0 3 -12 1 -26z m248 -14 c-6
-5 -24 21 -24 34 0 6 6 1 14 -10 8 -10 12 -21 10 -24z m-359 9 c-4 -5 -16 -14
-28 -19 -21 -11 -21 -11 -3 4 11 9 16 16 12 16 -4 0 -4 5 -1 10 4 6 11 8 16 4
5 -3 7 -10 4 -15z m167 -13 c6 4 8 2 5 -4 -4 -5 -15 -9 -25 -8 -9 2 -20 -4
-24 -13 -6 -12 -7 -12 -5 4 2 11 9 19 15 18 7 -2 13 7 13 20 l2 22 4 -23 c3
-13 9 -19 15 -16z m-1242 8 c0 -8 5 -12 10 -9 6 3 10 4 10 1 0 -16 -21 -13
-30 4 -7 13 -7 20 0 20 5 0 10 -7 10 -16z m189 -1 c0 -11 -3 -13 -6 -5 -2 6
-10 9 -15 6 -7 -4 -8 -2 -4 4 11 18 26 14 25 -5z m105 9 c3 -5 -1 -9 -9 -9 -8
0 -15 4 -15 9 0 4 4 8 9 8 6 0 12 -4 15 -8z m71 -3 c11 -16 1 -19 -13 -3 -7 8
-8 14 -3 14 5 0 13 -5 16 -11z m47 -13 c7 4 8 2 4 -5 -10 -15 -26 -4 -25 17 1
15 2 15 6 -1 2 -9 9 -14 15 -11z m698 3 c0 -5 -7 -9 -16 -9 -8 0 -13 -4 -10
-8 2 -4 0 -14 -5 -22 -7 -11 -8 -9 -6 9 2 14 9 27 15 29 7 2 9 9 6 14 -4 7 -2
8 4 4 7 -4 12 -11 12 -17z m185 11 c-3 -5 -12 -10 -18 -10 -7 0 -6 4 3 10 19
12 23 12 15 0z m35 0 c0 -5 -4 -10 -10 -10 -5 0 -10 5 -10 10 0 6 5 10 10 10
6 0 10 -4 10 -10z m65 0 c-3 -5 -11 -10 -16 -10 -6 0 -7 5 -4 10 3 6 11 10 16
10 6 0 7 -4 4 -10z m-1149 -34 c1 -9 -2 -14 -7 -10 -5 3 -7 10 -4 15 4 5 -1 9
-9 9 -9 0 -16 5 -16 10 0 17 33 -5 36 -24z m-260 -12 c3 -16 2 -26 -1 -23 -3
4 -8 19 -11 35 -3 16 -2 26 1 23 3 -4 8 -19 11 -35z m161 17 c0 -11 -4 -18 -8
-15 -4 2 -10 -3 -13 -12 -3 -8 -10 -13 -15 -10 -5 4 -12 1 -14 -4 -3 -6 -4 -5
-2 2 1 7 7 12 12 11 6 -1 16 9 23 22 16 30 19 31 17 6z m308 1 c-3 -3 -11 0
-18 7 -9 10 -8 11 6 5 10 -3 15 -9 12 -12z m912 -13 c-4 -13 0 -19 13 -19 13
0 17 6 13 19 -6 22 12 37 23 20 5 -8 3 -9 -5 -4 -9 5 -12 0 -9 -16 2 -20 -1
-24 -22 -24 -21 0 -24 4 -22 25 4 21 2 22 -12 11 -9 -8 -16 -9 -16 -3 0 12 21
21 33 15 5 -3 7 -14 4 -24z m96 18 c3 -8 2 -20 -3 -26 -5 -9 -7 -4 -7 13 0 29
2 32 10 13z m-959 -13 c3 -8 2 -12 -4 -9 -6 3 -10 10 -10 16 0 14 7 11 14 -7z
m758 -6 c-7 -7 -12 -8 -12 -2 0 6 3 14 7 17 3 4 9 5 12 2 2 -3 -1 -11 -7 -17z
m45 7 c0 -8 -4 -15 -9 -15 -4 0 -8 7 -8 15 0 8 4 15 8 15 5 0 9 -7 9 -15z
m-1257 -10 c0 -1 -12 -2 -26 -2 -17 0 -22 2 -13 7 10 7 39 3 39 -5z m149 5
c-6 -5 -18 -6 -26 -3 -19 8 -16 11 13 11 17 0 22 -3 13 -8z m131 -5 c0 -1 -12
-2 -26 -2 -17 0 -22 2 -13 7 10 7 39 3 39 -5z m46 0 c-8 -9 -18 -15 -22 -15
-4 1 -11 -4 -16 -12 -8 -11 -9 -11 -6 0 2 8 7 12 11 10 5 -2 13 5 18 15 6 9
15 17 20 17 6 0 4 -7 -5 -15z m74 0 c0 -1 -12 -2 -26 -2 -17 0 -22 2 -13 7 10
7 39 3 39 -5z m475 5 c3 -5 1 -10 -4 -10 -6 0 -11 5 -11 10 0 6 2 10 4 10 3 0
8 -4 11 -10z m224 0 c-6 -5 -18 -6 -26 -3 -19 8 -16 11 13 11 17 0 22 -3 13
-8z m-664 -9 c3 -5 0 -13 -6 -17 -7 -4 -9 -3 -5 4 3 5 0 13 -6 15 -9 4 -10 6
-1 6 6 1 14 -3 18 -8z m411 -11 c5 1 10 -4 12 -12 3 -11 2 -11 -6 0 -5 8 -13
13 -18 12 -5 -1 -10 4 -12 12 -3 11 -2 11 6 0 5 -8 13 -13 18 -12z m137 13
c-7 -2 -19 -2 -25 0 -7 3 -2 5 12 5 14 0 19 -2 13 -5z m-1063 -23 c6 -11 8
-20 6 -20 -3 0 -10 9 -16 20 -6 11 -8 20 -6 20 3 0 10 -9 16 -20z m194 -7 c-1
-26 -34 -49 -34 -24 0 6 7 7 17 4 11 -4 14 -3 9 6 -4 6 -5 18 -2 26 8 22 12
18 10 -12z m66 17 c0 -5 -6 -7 -14 -4 -11 4 -13 0 -9 -14 2 -11 1 -22 -4 -25
-6 -4 -9 33 -4 51 3 7 31 0 31 -8z m151 -13 c-10 -9 -11 -8 -5 6 3 10 9 15 12
12 3 -3 0 -11 -7 -18z m181 -2 c-2 -15 4 -21 19 -22 12 -1 19 1 15 4 -7 8 12
43 24 43 6 0 10 -5 10 -11 0 -5 -4 -7 -10 -4 -5 3 -11 1 -11 -4 -1 -6 -2 -17
-3 -23 0 -7 -12 -13 -26 -13 -19 1 -25 6 -24 22 0 15 -5 21 -18 20 -10 -1 -18
-6 -18 -11 0 -5 -3 -7 -6 -3 -11 11 5 24 28 23 17 -1 22 -6 20 -21z m107 2 c0
-9 -2 -8 -6 1 -2 6 -10 9 -15 6 -7 -4 -8 -2 -4 5 9 13 26 5 25 -12z m115 11
c-3 -5 -10 -5 -16 -2 -8 5 -9 1 -4 -12 5 -14 4 -16 -5 -7 -14 14 -6 30 15 30
8 0 13 -4 10 -9z m206 2 c0 -5 -4 -10 -10 -10 -5 0 -10 5 -10 10 0 6 5 10 10
10 6 0 10 -4 10 -10z m136 -17 c4 -25 -11 -39 -22 -22 -4 7 -3 9 4 5 7 -4 10
2 9 14 -1 12 -6 19 -14 16 -7 -3 -13 -1 -13 5 0 20 33 4 36 -18z m120 4 c1 -9
-2 -15 -7 -11 -5 3 -6 10 -3 16 5 7 1 9 -9 5 -10 -3 -17 -2 -17 4 0 18 33 5
36 -14z m37 -8 c-4 -16 -8 -17 -14 -7 -5 7 -4 14 1 16 6 2 7 9 4 14 -4 6 -2 8
4 5 5 -4 8 -16 5 -28z m41 4 c-1 -26 -34 -49 -34 -24 0 6 7 7 17 4 11 -4 14
-3 9 6 -4 6 -5 18 -2 26 8 22 12 18 10 -12z m-1294 2 c0 -8 -4 -15 -10 -15 -5
0 -7 7 -4 15 4 8 8 15 10 15 2 0 4 -7 4 -15z m45 -14 c-6 -5 -25 10 -25 20 0
5 6 4 14 -3 8 -7 12 -15 11 -17z m385 14 c0 -8 -4 -15 -10 -15 -5 0 -7 7 -4
15 4 8 8 15 10 15 2 0 4 -7 4 -15z m386 -7 c-4 -28 -49 -32 -54 -5 -2 9 1 17
7 17 6 0 8 -6 5 -13 -2 -7 4 -13 16 -14 11 -1 19 1 19 5 -2 14 1 32 6 32 3 0
3 -10 1 -22z m118 -10 c-5 -7 -1 -9 9 -5 10 3 17 2 17 -4 0 -6 -8 -9 -17 -7
-10 2 -17 10 -15 16 2 14 0 14 -22 6 -9 -3 -13 -11 -9 -17 4 -6 1 -7 -7 -2
-10 6 -10 11 3 20 9 7 13 16 9 20 -4 4 3 2 16 -4 13 -7 20 -17 16 -23z m239
-2 c-4 -5 1 -7 10 -3 10 3 17 2 17 -4 0 -22 -33 -3 -37 21 -2 18 -1 21 6 10 5
-8 7 -18 4 -24z m-1253 18 c0 -8 -19 -13 -24 -6 -3 5 1 9 9 9 8 0 15 -2 15 -3z
m350 -9 c0 -8 -2 -15 -4 -15 -2 0 -6 7 -10 15 -3 8 -1 15 4 15 6 0 10 -7 10
-15z m108 -2 c-3 -17 -38 -28 -38 -11 0 6 7 8 15 4 9 -3 15 0 15 9 0 8 3 15 6
15 3 0 4 -7 2 -17z m81 0 c-12 -15 -12 -16 4 -10 9 3 17 2 17 -3 0 -11 -23
-13 -33 -3 -7 6 10 33 20 33 3 0 -1 -8 -8 -17z m233 -3 c-2 -8 3 -10 13 -7 8
4 15 2 15 -4 0 -6 -8 -9 -17 -7 -10 2 -17 10 -15 17 2 9 -5 10 -20 6 -18 -5
-20 -4 -8 4 18 13 36 8 32 -9z m318 5 c0 -8 -2 -15 -4 -15 -2 0 -6 7 -10 15
-3 8 -1 15 4 15 6 0 10 -7 10 -15z m44 -17 c-7 -11 -34 -10 -34 2 0 5 7 7 15
4 11 -5 14 -1 9 12 -5 15 -4 16 4 4 6 -8 8 -18 6 -22z m86 22 c11 -7 11 -10 2
-10 -7 0 -10 -5 -6 -12 4 -7 3 -8 -5 -4 -6 4 -9 11 -6 16 3 4 -1 11 -7 13 -7
3 -8 6 -3 6 6 0 17 -4 25 -9z m180 0 c0 -5 -2 -10 -4 -10 -3 0 -8 5 -11 10 -3
6 -1 10 4 10 6 0 11 -4 11 -10z m140 -3 c0 -4 -12 -5 -26 -3 -38 7 -40 14 -5
12 17 0 31 -4 31 -9z m-847 -18 c-8 -8 -13 -7 -18 2 -5 8 -4 10 3 5 7 -4 12
-2 12 5 0 7 3 9 7 6 4 -4 2 -12 -4 -18z m240 0 c-8 -8 -13 -7 -18 2 -5 8 -4
10 3 5 7 -4 12 -2 12 5 0 7 3 9 7 6 4 -4 2 -12 -4 -18z m507 16 c0 -2 -10 -9
-22 -15 -22 -11 -22 -10 -4 4 21 17 26 19 26 11z m-1382 -28 c2 -10 -1 -17 -7
-17 -6 0 -8 6 -5 14 4 11 0 13 -14 9 -11 -2 -22 -1 -25 4 -3 5 7 8 21 7 17 0
28 -7 30 -17z m37 13 c-3 -5 4 -10 17 -11 l23 -1 -23 -6 c-13 -4 -22 -11 -21
-17 2 -5 -6 -11 -17 -12 -14 -2 -15 -1 -4 5 9 4 15 14 15 22 -1 17 4 30 11 30
3 0 2 -4 -1 -10z m196 -7 c-25 -44 -30 -49 -28 -26 0 12 4 20 8 17 4 -2 9 3
13 11 3 8 8 15 11 15 3 0 1 -8 -4 -17z m187 -9 c0 -17 -3 -22 -8 -13 -5 6 -6
18 -3 26 8 19 11 16 11 -13z m1019 11 c5 -4 2 -5 -4 -1 -8 4 -13 2 -14 -6 0
-10 -2 -10 -6 0 -2 6 -9 12 -14 12 -6 0 -8 -4 -5 -8 2 -4 0 -14 -5 -22 -7 -11
-8 -8 -5 10 3 14 5 26 5 27 2 6 41 -4 48 -12z m-1083 -27 c-3 -4 -1 -8 5 -8 5
0 12 5 14 10 3 6 4 5 3 -2 -5 -23 -29 -14 -33 12 -2 18 -1 21 6 10 5 -8 7 -18
5 -22z m163 -3 c-4 -8 -14 -11 -28 -8 -17 5 -20 3 -14 -7 5 -9 4 -11 -4 -6
-17 11 -2 29 20 23 14 -4 19 0 20 16 0 12 3 16 6 9 3 -7 2 -19 0 -27z m241 13
c-2 -15 -10 -22 -30 -22 -14 -1 -24 2 -21 7 3 5 14 7 24 4 14 -4 19 0 19 14 0
10 3 19 6 19 3 0 4 -10 2 -22z m240 0 c-2 -15 -10 -22 -30 -22 -14 -1 -24 2
-21 7 3 5 14 7 24 4 14 -4 19 0 19 14 0 10 3 19 6 19 3 0 4 -10 2 -22z m238
-14 c-3 -8 -10 -12 -16 -9 -5 3 -10 0 -11 -7 0 -10 -2 -10 -6 0 -2 6 -10 9
-15 6 -7 -4 -8 -2 -4 4 3 6 15 9 26 7 15 -3 20 2 21 18 0 12 3 16 6 9 3 -7 2
-20 -1 -28z m222 10 c0 -17 -3 -22 -8 -13 -5 6 -6 18 -3 26 8 19 11 16 11 -13z
m42 16 c0 -5 -4 -10 -10 -10 -5 0 -10 5 -10 10 0 6 5 10 10 10 6 0 10 -4 10
-10z m-1569 -23 c-10 -9 -11 -8 -5 6 3 10 9 15 12 12 3 -3 0 -11 -7 -18z m184
2 c-4 -5 1 -9 9 -9 9 0 16 -5 16 -10 0 -17 -33 5 -36 24 -1 9 2 14 7 10 5 -3
7 -10 4 -15z m75 6 c0 -1 -12 -2 -26 -2 -17 0 -22 2 -13 7 10 7 39 3 39 -5z
m262 -7 c-7 -7 -12 -8 -12 -2 0 14 12 26 19 19 2 -3 -1 -11 -7 -17z m116 -8
c4 3 7 -4 8 -15 1 -16 0 -16 -3 -2 -3 9 -8 15 -13 12 -5 -3 -14 5 -20 17 -11
22 -11 22 5 3 9 -11 19 -18 23 -15z m51 7 c0 -9 -2 -9 -5 0 -3 7 -13 9 -22 6
-14 -4 -14 -3 -2 5 16 12 30 7 29 -11z m41 8 c0 -8 -2 -15 -4 -15 -2 0 -6 7
-10 15 -3 8 -1 15 4 15 6 0 10 -7 10 -15z m32 -7 c-7 -7 -12 -8 -12 -2 0 6 3
14 7 17 3 4 9 5 12 2 2 -3 -1 -11 -7 -17z m116 -10 c3 2 7 -1 8 -7 2 -7 1 -8
-3 -1 -2 5 -9 8 -13 5 -5 -3 -14 5 -20 17 -11 22 -11 22 5 3 9 -11 19 -19 23
-17z m51 9 c0 -9 -2 -9 -5 0 -3 7 -13 9 -22 6 -14 -4 -14 -3 -2 5 16 12 30 7
29 -11z m41 8 c0 -8 -2 -15 -4 -15 -2 0 -6 7 -10 15 -3 8 -1 15 4 15 6 0 10
-7 10 -15z m32 -7 c-7 -7 -12 -8 -12 -2 0 6 3 14 7 17 3 4 9 5 12 2 2 -3 -1
-11 -7 -17z m116 -8 c4 3 7 -4 8 -15 1 -16 0 -16 -3 -2 -3 9 -8 15 -13 12 -5
-3 -14 5 -20 17 -11 22 -11 22 5 3 9 -11 19 -18 23 -15z m51 7 c0 -9 -2 -9 -5
0 -3 7 -13 9 -22 6 -14 -4 -14 -3 -2 5 16 12 30 7 29 -11z m41 8 c0 -8 -4 -15
-8 -15 -5 0 -9 7 -9 15 0 8 4 15 9 15 4 0 8 -7 8 -15z m32 -7 c-7 -7 -12 -8
-12 -2 0 6 3 14 7 17 3 4 9 5 12 2 2 -3 -1 -11 -7 -17z m116 -10 c3 2 7 -1 8
-7 2 -7 1 -8 -3 -1 -2 5 -9 8 -13 5 -5 -3 -14 5 -20 17 -11 22 -11 22 5 3 9
-11 19 -19 23 -17z m62 16 c0 -2 -7 -4 -15 -4 -8 0 -15 4 -15 10 0 5 7 7 15 4
8 -4 15 -8 15 -10z m-1267 -15 c-8 -8 -13 -7 -18 2 -5 8 -4 10 3 5 7 -4 12 -2
12 5 0 7 3 9 7 6 4 -4 2 -12 -4 -18z m-105 2 c11 -7 10 -9 -3 -14 -11 -5 -14
-3 -9 5 5 8 2 9 -10 5 -10 -4 -15 -3 -11 3 7 12 16 12 33 1z m282 -1 c-8 -5
-18 -6 -22 -4 -4 3 -8 1 -8 -5 0 -5 6 -12 13 -14 9 -4 9 -6 0 -6 -14 -1 -26
16 -19 27 2 4 15 8 28 9 17 2 19 0 8 -7z m80 -16 c0 -2 -9 0 -20 6 -11 6 -20
13 -20 16 0 2 9 0 20 -6 11 -6 20 -13 20 -16z m1096 7 c1 -6 0 -7 -2 -2 -3 6
-12 7 -20 4 -8 -3 -14 -1 -14 5 0 14 33 8 36 -7z m-1246 -6 c0 -2 -6 -5 -13
-8 -8 -3 -14 1 -14 8 0 7 6 11 14 8 7 -3 13 -6 13 -8z m-260 1 c0 -2 -7 -7
-16 -10 -8 -3 -12 -2 -9 4 6 10 25 14 25 6z m138 -4 c8 -6 2 -9 -18 -9 -20 0
-26 3 -18 9 7 4 15 8 18 8 3 0 11 -4 18 -8z m47 -10 c-3 -3 -11 0 -18 7 -9 10
-8 11 6 5 10 -3 15 -9 12 -12z m162 4 c-3 -8 -2 -17 4 -20 5 -2 4 -3 -2 -2
-15 3 -21 36 -7 36 6 0 8 -6 5 -14z m108 4 c-3 -5 -12 -10 -18 -10 -7 0 -6 4
3 10 19 12 23 12 15 0z m55 5 c0 -7 -30 -13 -34 -7 -3 4 4 9 15 9 10 1 19 0
19 -2z m100 -2 c0 -5 -5 -15 -10 -23 -7 -12 -9 -10 -7 8 1 19 17 33 17 15z
m105 -3 c3 -6 -1 -7 -9 -4 -18 7 -21 14 -7 14 6 0 13 -4 16 -10z m35 0 c0 -5
-4 -10 -10 -10 -5 0 -10 5 -10 10 0 6 5 10 10 10 6 0 10 -4 10 -10z m200 2 c0
-4 -12 -8 -27 -9 -24 -1 -25 -1 -8 7 26 11 35 12 35 2z m40 4 c0 -2 -7 -7 -16
-10 -8 -3 -12 -2 -9 4 6 10 25 14 25 6z m47 -18 c-3 -8 -6 -5 -6 6 -1 11 2 17
5 13 3 -3 4 -12 1 -19z m50 2 c-1 -11 -5 -20 -9 -20 -3 0 -6 9 -5 20 1 11 5
20 9 20 3 0 6 -9 5 -20z m108 10 c3 -6 -1 -7 -9 -4 -18 7 -21 14 -7 14 6 0 13
-4 16 -10z m35 0 c0 -5 -4 -10 -10 -10 -5 0 -10 5 -10 10 0 6 5 10 10 10 6 0
10 -4 10 -10z m182 3 c-6 -2 -10 -9 -7 -14 4 -5 -1 -6 -10 -2 -13 5 -14 7 -3
14 7 5 18 8 23 8 6 0 4 -3 -3 -6z m145 -2 c-10 -4 -19 -11 -20 -16 -1 -6 -10
-10 -19 -9 -11 0 -18 -7 -18 -17 0 -12 6 -16 19 -12 22 6 37 -12 20 -23 -8 -5
-9 -3 -4 5 5 9 0 12 -16 9 -20 -2 -24 1 -24 22 0 20 4 24 23 22 12 -2 22 0 21
5 -3 17 2 23 19 22 16 0 16 -1 -1 -8z m-1532 -21 c-3 -5 -14 -8 -25 -7 -10 1
-17 5 -14 9 3 4 12 4 21 1 12 -5 14 -3 8 7 -5 9 -4 11 4 6 6 -4 9 -11 6 -16z
m505 10 c0 -5 -7 -10 -16 -10 -8 0 -13 -4 -10 -8 2 -4 0 -14 -5 -22 -7 -11 -8
-9 -6 8 2 13 10 28 18 33 18 11 19 11 19 -1z m180 -14 c0 -2 -9 -2 -20 1 -11
3 -20 9 -20 15 0 5 9 4 20 -2 11 -6 20 -12 20 -14z m126 11 c8 3 14 1 14 -5 0
-14 -33 -8 -36 7 -1 6 0 7 2 2 3 -6 12 -7 20 -4z m174 3 c0 -5 -7 -10 -16 -10
-9 0 -12 -5 -8 -12 5 -7 3 -8 -6 -3 -10 6 -9 11 5 22 22 16 25 16 25 3z m180
-14 c0 -2 -9 -2 -20 1 -11 3 -20 9 -20 15 0 5 9 4 20 -2 11 -6 20 -12 20 -14z
m126 11 c8 3 14 1 14 -5 0 -14 -33 -8 -36 7 -1 6 0 7 2 2 3 -6 12 -7 20 -4z
m-1250 -9 c4 -7 3 -8 -4 -4 -7 4 -12 2 -12 -3 0 -6 -5 -11 -11 -11 -8 0 -8 5
1 15 15 18 17 18 26 3z m201 -19 c1 -20 1 -21 -3 -3 -4 15 -11 20 -23 17 -10
-3 -21 -1 -24 4 -3 5 7 8 21 7 21 0 27 -6 29 -25z m155 1 c-3 -20 -1 -23 9
-12 7 6 17 12 23 12 5 0 1 -6 -9 -14 -24 -17 -38 -10 -32 15 4 13 0 19 -12 19
-11 0 -17 -7 -17 -20 1 -10 -3 -19 -8 -19 -5 1 -13 -5 -18 -13 -8 -10 -9 -10
-5 2 2 8 10 14 16 12 7 -1 12 6 11 15 -4 31 -1 34 23 31 17 -2 21 -8 19 -28z
m57 7 c0 -9 -2 -8 -6 1 -2 6 -10 9 -15 6 -7 -4 -8 -2 -4 5 9 13 26 5 25 -12z
m146 13 c-3 -5 -1 -10 6 -10 7 0 10 -3 6 -6 -9 -9 -28 6 -22 17 4 5 8 9 11 9
3 0 2 -4 -1 -10z m178 -3 c3 -8 2 -20 -3 -26 -5 -9 -7 -4 -7 13 0 29 2 32 10
13z m480 0 c3 -8 2 -20 -3 -26 -5 -9 -7 -4 -7 13 0 29 2 32 10 13z m85 -13 c0
-17 -3 -22 -8 -13 -5 6 -6 18 -3 26 8 19 11 16 11 -13z m102 6 c6 -11 8 -20 6
-20 -3 0 -10 9 -16 20 -6 11 -8 20 -6 20 3 0 10 -9 16 -20z m-1382 -16 c0 -17
-3 -22 -8 -13 -5 6 -6 18 -3 26 8 19 11 16 11 -13z m42 17 c0 -5 -7 -11 -14
-14 -10 -4 -13 -1 -9 9 6 15 23 19 23 5z m40 -6 c0 -8 -4 -15 -10 -15 -5 0 -7
7 -4 15 4 8 8 15 10 15 2 0 4 -7 4 -15z m40 -6 c0 -6 -4 -7 -10 -4 -5 3 -10
11 -10 16 0 6 5 7 10 4 6 -3 10 -11 10 -16z m518 -5 c0 -17 -3 -22 -8 -13 -5
6 -6 18 -3 26 8 19 11 16 11 -13z m43 11 c5 4 6 -2 2 -11 -4 -11 -8 -13 -11
-6 -2 7 -8 10 -13 7 -5 -4 -6 2 -2 11 4 11 8 13 11 6 2 -7 8 -10 13 -7z m192
2 c3 -8 2 -20 -3 -26 -5 -9 -7 -4 -7 13 0 29 2 32 10 13z m245 -13 c0 -17 -3
-22 -8 -13 -5 6 -6 18 -3 26 8 19 11 16 11 -13z m44 8 c-7 -2 -10 -8 -7 -13 4
-5 -2 -6 -11 -2 -11 4 -13 8 -6 11 7 2 10 8 7 13 -4 5 2 6 11 2 11 -4 13 -8 6
-11z m-902 -7 c0 -1 -12 -2 -26 -2 -17 0 -22 2 -13 7 10 7 39 3 39 -5z m219 5
c-6 -5 -18 -6 -26 -3 -19 8 -16 11 13 11 17 0 22 -3 13 -8z m297 -7 c-3 -20
-33 -30 -48 -15 -6 6 0 8 17 5 14 -3 25 -2 24 3 -2 13 0 24 5 24 2 0 3 -8 2
-17z m64 7 c8 -5 11 -10 5 -10 -5 0 -17 5 -25 10 -8 5 -10 10 -5 10 6 0 17 -5
25 -10z m119 0 c-6 -5 -18 -6 -26 -3 -19 8 -16 11 13 11 17 0 22 -3 13 -8z
m90 0 c-6 -5 -18 -6 -26 -3 -19 8 -16 11 13 11 17 0 22 -3 13 -8z m280 0 c-6
-5 -18 -6 -26 -3 -19 8 -16 11 13 11 17 0 22 -3 13 -8z m155 2 c3 -5 -1 -9 -9
-9 -8 0 -15 4 -15 9 0 4 4 8 9 8 6 0 12 -4 15 -8z m-269 -12 c-3 -5 3 -10 15
-10 13 0 19 4 14 12 -4 7 -3 8 5 4 16 -10 4 -26 -19 -26 -20 0 -33 13 -23 24
10 9 15 7 8 -4z m-1285 -4 c0 -2 -7 -6 -15 -10 -8 -3 -15 -1 -15 4 0 6 7 10
15 10 8 0 15 -2 15 -4z m46 -15 c1 -6 0 -7 -3 -1 -2 5 -9 8 -13 5 -5 -3 -11
-1 -14 4 -4 5 2 8 11 7 9 -2 18 -8 19 -15z m84 -7 c0 -8 -4 -14 -10 -14 -5 0
-7 7 -3 16 5 14 3 14 -15 3 -11 -7 -20 -18 -19 -23 1 -6 -7 -11 -18 -11 -11 0
-23 -9 -27 -20 -6 -17 -7 -16 -5 5 2 20 7 24 25 22 12 -2 21 1 20 7 -4 12 34
41 44 35 5 -3 8 -12 8 -20z m100 16 c0 -5 -7 -6 -17 -3 -12 5 -14 3 -8 -7 5
-9 4 -11 -4 -6 -6 4 -9 12 -6 17 8 12 35 12 35 -1z m38 -16 c0 -17 -3 -22 -8
-13 -5 6 -6 18 -3 26 8 19 11 16 11 -13z m255 8 c-3 -14 -1 -14 21 -6 9 3 13
11 9 17 -3 5 -1 7 5 4 5 -4 9 -15 8 -25 -2 -10 5 -20 18 -24 18 -6 18 -7 -4
-5 -14 1 -24 8 -22 15 2 14 0 14 -22 6 -9 -3 -13 -11 -9 -17 3 -6 1 -7 -5 -3
-6 3 -9 16 -7 27 3 15 0 19 -10 15 -8 -3 -15 -1 -15 5 0 6 8 9 18 7 9 -2 16
-10 15 -16z m101 6 c-3 -5 -10 -5 -16 -2 -7 5 -9 1 -5 -9 3 -10 2 -17 -3 -17
-10 0 -14 23 -5 32 9 8 34 5 29 -4z m64 -9 c3 -11 2 -12 -6 -1 -5 8 -12 13
-16 12 -4 -1 -12 1 -19 4 -6 2 -1 3 12 2 14 -2 27 -9 29 -17z m316 -9 c0 -19
-5 -25 -22 -24 -15 0 -21 -4 -18 -13 3 -7 1 -13 -5 -13 -6 0 -9 8 -7 18 2 10
11 16 24 14 14 -2 20 3 20 18 0 13 -5 19 -13 16 -7 -3 -13 -1 -13 5 0 6 8 9
17 7 11 -2 17 -12 17 -28z m42 1 c-9 -14 -26 -14 -26 0 0 5 5 7 12 3 8 -5 9
-1 4 12 -5 14 -4 16 5 7 6 -6 8 -16 5 -22z m50 17 c4 -7 3 -8 -4 -4 -7 4 -12
3 -12 -3 0 -5 6 -12 13 -14 9 -4 9 -6 0 -6 -15 -1 -26 16 -18 29 8 13 12 13
21 -2z m78 -11 c10 -9 12 -17 6 -17 -6 0 -13 7 -16 15 -4 8 -9 13 -13 11 -4
-3 -13 0 -21 5 -12 7 -10 8 6 6 12 -1 29 -11 38 -20z m274 5 c2 -7 9 -9 14 -6
7 4 8 2 4 -4 -10 -17 -26 -15 -26 4 0 8 -4 13 -8 10 -4 -2 -14 0 -22 5 -11 7
-9 8 9 6 14 -2 27 -9 29 -15z m-502 -24 c-9 -12 -16 -19 -16 -15 0 11 24 47
28 42 2 -2 -3 -14 -12 -27z m602 6 c0 -17 -3 -22 -8 -13 -5 6 -6 18 -3 26 8
19 11 16 11 -13z m-1528 6 c8 -5 11 -10 5 -10 -5 0 -17 5 -25 10 -8 5 -10 10
-5 10 6 0 17 -5 25 -10z m166 -2 c4 -6 3 -8 -4 -4 -5 3 -12 1 -14 -6 -2 -6
-15 -13 -29 -15 -18 -2 -20 -1 -9 6 8 5 18 7 22 5 4 -3 8 2 8 10 0 19 16 21
26 4z m124 2 c8 -5 11 -10 5 -10 -5 0 -17 5 -25 10 -8 5 -10 10 -5 10 6 0 17
-5 25 -10z m75 0 c-3 -5 -11 -10 -16 -10 -6 0 -7 5 -4 10 3 6 11 10 16 10 6 0
7 -4 4 -10z m47 3 c-6 -2 -10 -9 -6 -14 3 -5 0 -9 -5 -9 -12 0 -14 13 -4 23 3
4 11 7 17 6 6 0 5 -3 -2 -6z m216 -10 c-2 -9 -11 -17 -21 -19 -9 -1 -15 2 -11
7 3 5 10 6 16 3 7 -5 9 -1 5 9 -3 10 -2 17 4 17 6 0 9 -7 7 -17z m122 7 c0 -5
-4 -10 -10 -10 -5 0 -10 5 -10 10 0 6 5 10 10 10 6 0 10 -4 10 -10z m35 -8
c-3 -3 -11 0 -18 7 -9 10 -8 11 6 5 10 -3 15 -9 12 -12z m79 -24 c-3 -4 3 -7
13 -5 10 1 19 -2 20 -7 1 -5 14 -17 29 -27 25 -16 26 -18 7 -16 -12 0 -20 4
-17 8 2 4 -3 10 -12 13 -8 3 -12 10 -9 16 3 5 -2 9 -12 7 -10 -1 -19 2 -20 7
0 5 -8 13 -17 18 -9 5 -16 13 -16 18 0 6 9 2 19 -7 11 -9 18 -20 15 -25z m36
38 c0 -2 -7 -6 -15 -10 -8 -3 -15 -1 -15 4 0 6 7 10 15 10 8 0 15 -2 15 -4z
m218 -12 c5 -9 13 -15 18 -14 5 0 10 -6 12 -14 2 -9 -1 -16 -7 -16 -6 0 -8 7
-5 15 4 10 0 13 -15 10 -11 -2 -24 1 -27 7 -4 7 -2 8 4 4 7 -4 12 -3 12 3 0 5
-6 12 -12 14 -10 4 -10 6 -1 6 7 1 16 -6 21 -15z m101 6 c-6 -5 -18 -6 -26 -3
-19 8 -16 11 13 11 17 0 22 -3 13 -8z m96 0 c-3 -5 -12 -10 -18 -10 -7 0 -6 4
3 10 19 12 23 12 15 0z m39 -2 c-3 -4 -9 -8 -15 -8 -5 0 -9 4 -9 8 0 5 7 9 15
9 8 0 12 -4 9 -9z m34 -5 c-2 -10 -9 -17 -16 -16 -7 2 -11 -7 -9 -20 1 -14 -3
-21 -12 -19 -8 2 -11 -3 -8 -13 4 -8 2 -15 -4 -15 -6 0 -9 8 -7 18 2 9 9 16
16 15 7 -2 11 7 9 20 -1 14 3 21 12 19 8 -2 11 3 8 13 -4 8 -2 15 4 15 6 0 9
-8 7 -17z m-1163 -14 c-8 -12 -35 -12 -35 1 0 5 7 6 17 3 12 -5 14 -3 8 7 -5
9 -4 11 4 6 6 -4 9 -12 6 -17z m1239 9 c-5 -8 -2 -9 9 -5 10 3 17 2 17 -3 0
-12 -27 -13 -34 -1 -3 4 -3 11 1 15 10 10 15 7 7 -6z m-1134 -8 c0 -5 -4 -10
-10 -10 -5 0 -10 5 -10 10 0 6 5 10 10 10 6 0 10 -4 10 -10z m151 -15 c3 2 6
-6 6 -18 2 -23 -6 -15 -28 28 -9 18 -9 19 4 3 8 -10 16 -16 18 -13z m222 12
c-3 -5 -14 -7 -24 -4 -14 4 -19 0 -20 -16 0 -12 -3 -16 -6 -9 -9 22 3 37 30
37 14 0 23 -4 20 -8z m105 -1 c-7 -8 -15 -12 -17 -11 -5 6 10 25 20 25 5 0 4
-6 -3 -14z m242 4 c0 -5 -4 -10 -10 -10 -5 0 -10 5 -10 10 0 6 5 10 10 10 6 0
10 -4 10 -10z m135 -17 c-1 -22 -7 -28 -26 -30 -23 -1 -23 -1 -1 4 12 2 20 9
16 14 -5 9 1 39 9 39 1 0 2 -12 2 -27z m59 20 c-15 -3 -20 -10 -17 -22 3 -10
1 -21 -4 -24 -6 -4 -9 33 -4 51 1 1 11 1 24 1 21 -2 21 -2 1 -6z m44 -18 c-3
-3 -9 2 -12 12 -6 14 -5 15 5 6 7 -7 10 -15 7 -18z m120 -1 c0 -17 -3 -22 -8
-13 -5 6 -6 18 -3 26 8 19 11 16 11 -13z m-1205 -19 c9 0 17 -4 16 -9 0 -5 6
-13 15 -18 9 -5 16 -13 16 -18 0 -6 -9 -2 -19 7 -11 9 -17 21 -14 26 3 5 -5 7
-18 5 -19 -2 -24 2 -26 22 -2 21 -1 22 5 5 4 -11 15 -20 25 -20z m519 13 c-7
-7 -12 -8 -12 -2 0 6 3 14 7 17 3 4 9 5 12 2 2 -3 -1 -11 -7 -17z m45 7 c0 -8
-4 -15 -9 -15 -4 0 -8 7 -8 15 0 8 4 15 8 15 5 0 9 -7 9 -15z m557 0 c3 -8 1
-15 -4 -15 -6 0 -10 7 -10 15 0 8 2 15 4 15 2 0 6 -7 10 -15z m183 -20 c-4 -8
-14 -11 -28 -8 -17 5 -20 3 -14 -7 5 -9 4 -11 -4 -6 -17 11 -2 29 20 23 14 -4
19 0 20 16 0 12 3 16 6 9 3 -7 2 -19 0 -27z m-1407 15 c12 -7 10 -9 -8 -7 -12
0 -22 5 -22 9 0 11 12 10 30 -2z m50 -10 c-6 -11 -15 -18 -20 -15 -4 3 -11 0
-13 -5 -4 -7 -5 -6 -3 1 1 6 5 9 9 7 5 -2 13 5 18 15 14 24 22 21 9 -3z m120
-17 c0 -1 -5 -5 -12 -9 -6 -4 -8 -3 -5 3 4 6 0 13 -8 17 -8 3 -15 10 -15 16 0
5 9 2 20 -7 11 -10 20 -18 20 -20z m19 27 c-6 -5 -18 -6 -26 -3 -19 8 -16 11
13 11 17 0 22 -3 13 -8z m90 0 c-6 -5 -18 -6 -26 -3 -19 8 -16 11 13 11 17 0
22 -3 13 -8z m28 -8 c-15 -10 -25 -21 -21 -24 3 -3 1 -9 -4 -12 -6 -3 -9 1 -8
9 2 16 34 44 51 45 6 0 -2 -8 -18 -18z m143 3 c0 -1 -12 -2 -26 -2 -17 0 -22
2 -13 7 10 7 39 3 39 -5z m280 1 c0 -20 -17 -29 -26 -15 -5 8 -3 9 6 4 10 -6
12 -4 7 8 -3 10 -2 17 3 17 6 0 10 -6 10 -14z m190 2 c0 -4 -7 -8 -15 -8 -8 0
-15 4 -15 8 0 5 7 9 15 9 8 0 15 -4 15 -9z m70 2 c0 -5 -7 -7 -15 -4 -8 4 -15
8 -15 10 0 2 7 4 15 4 8 0 15 -4 15 -10z m173 -7 c-5 -12 -3 -14 7 -8 9 5 11
4 6 -4 -4 -6 -12 -9 -17 -6 -12 8 -12 35 1 35 5 0 6 -7 3 -17z m179 -5 c-7 -7
-12 -8 -12 -2 0 6 3 14 7 17 3 4 9 5 12 2 2 -3 -1 -11 -7 -17z m-817 3 c3 -5
0 -13 -6 -17 -7 -4 -9 -3 -5 4 3 5 0 13 -6 15 -9 4 -10 6 -1 6 6 1 14 -3 18
-8z m-639 -20 c1 -6 0 -7 -3 -1 -2 5 -9 8 -13 5 -5 -3 -11 -1 -14 4 -4 5 2 8
11 7 9 -2 18 -8 19 -15z m74 4 c-1 -5 9 -13 22 -17 22 -7 22 -7 -2 -5 -15 2
-24 8 -22 16 2 8 -3 11 -13 8 -8 -4 -15 -2 -15 4 0 6 7 9 16 7 8 -2 15 -7 14
-13z m285 5 c-3 -5 0 -10 7 -10 9 0 9 -3 -2 -10 -8 -5 -19 -10 -25 -10 -5 0
-3 5 5 10 8 5 11 10 7 10 -9 0 1 20 9 20 3 0 2 -4 -1 -10z m126 -12 c6 -12 6
-18 -1 -18 -5 0 -10 7 -10 16 0 8 -4 13 -8 10 -4 -2 -14 -1 -22 4 -11 7 -9 9
8 7 13 -1 28 -9 33 -19z m232 4 c-3 -14 -1 -14 21 -6 9 3 13 11 9 17 -3 6 -1
7 5 3 6 -3 9 -16 7 -27 -3 -15 0 -19 10 -15 8 3 15 1 15 -5 0 -6 -8 -9 -17 -7
-10 2 -17 9 -16 16 2 7 -7 11 -20 9 -14 -1 -21 3 -19 12 2 8 -3 11 -13 8 -8
-4 -15 -2 -15 4 0 6 8 9 18 7 9 -2 16 -10 15 -16z m80 1 c-4 -10 -2 -14 5 -9
6 3 14 1 18 -5 4 -8 3 -9 -4 -5 -7 4 -12 1 -12 -6 0 -8 -5 -6 -11 5 -5 9 -7
22 -4 27 10 16 15 12 8 -7z m203 5 c4 -7 3 -8 -4 -4 -7 4 -12 3 -12 -3 0 -6
-8 -7 -17 -4 -17 7 -15 8 24 22 1 1 5 -4 9 -11z m64 2 c0 -5 -4 -10 -10 -10
-5 0 -10 5 -10 10 0 6 5 10 10 10 6 0 10 -4 10 -10z m75 0 c3 -5 0 -7 -8 -4
-10 4 -14 -2 -13 -18 1 -18 -4 -23 -24 -23 -26 0 -36 26 -12 31 7 1 8 0 2 -3
-16 -8 -12 -19 9 -20 13 -1 18 4 16 15 -4 29 16 44 30 22z m-598 -15 c0 -17
-13 -20 -21 -6 -4 5 0 12 6 14 7 3 13 6 14 6 0 1 1 -6 1 -14z m46 1 c4 -10 1
-13 -9 -9 -15 6 -19 23 -5 23 5 0 11 -7 14 -14z m30 1 c3 -8 2 -20 -3 -26 -5
-9 -7 -4 -7 13 0 29 2 32 10 13z m-643 -7 c8 -5 11 -10 5 -10 -5 0 -17 5 -25
10 -8 5 -10 10 -5 10 6 0 17 -5 25 -10z m345 0 c3 -6 -1 -7 -10 -4 -11 5 -14
2 -9 -12 5 -15 4 -16 -4 -4 -11 15 -7 30 8 30 5 0 12 -4 15 -10z m123 -7 c-3
-17 -38 -28 -38 -11 0 6 7 7 16 4 12 -4 15 -2 10 9 -3 8 -1 15 5 15 6 0 9 -7
7 -17z m422 2 c0 -8 -2 -15 -4 -15 -2 0 -6 7 -10 15 -3 8 -1 15 4 15 6 0 10
-7 10 -15z m37 8 c-4 -3 1 -11 10 -18 13 -9 13 -14 3 -20 -9 -5 -11 -4 -6 3 4
7 1 12 -8 12 -9 0 -16 4 -16 8 0 10 11 22 18 22 3 0 2 -3 -1 -7z m138 -3 c3
-6 -1 -7 -9 -4 -18 7 -21 14 -7 14 6 0 13 -4 16 -10z m185 -11 c0 -5 -7 -9
-16 -9 -8 0 -13 -4 -9 -9 3 -5 1 -12 -4 -15 -5 -4 -8 2 -7 11 2 9 8 19 14 21
7 2 9 9 6 14 -4 7 -2 8 4 4 7 -4 12 -11 12 -17z m44 12 c3 -5 0 -11 -7 -14 -8
-3 -14 1 -14 9 0 16 13 19 21 5z m46 -7 c0 -8 4 -13 8 -10 4 2 14 1 22 -4 11
-7 9 -9 -8 -7 -23 1 -54 37 -32 37 5 0 10 -7 10 -16z m130 11 c0 -7 -30 -13
-34 -7 -3 4 4 9 15 9 10 1 19 0 19 -2z m-1402 -17 c-5 -14 -38 -20 -38 -6 0 6
7 8 15 4 8 -3 15 -1 15 4 0 6 3 10 6 10 3 0 4 -5 2 -12z m160 0 c-5 -14 -38
-20 -38 -6 0 6 7 8 15 4 8 -3 15 -1 15 4 0 6 3 10 6 10 3 0 4 -5 2 -12z m480
0 c-5 -14 -38 -20 -38 -6 0 6 7 8 15 4 8 -3 15 -1 15 4 0 6 3 10 6 10 3 0 4
-5 2 -12z m316 0 c-5 -8 -2 -9 9 -5 10 3 17 2 17 -3 0 -12 -27 -13 -34 -1 -3
4 -3 11 1 15 10 10 15 7 7 -6z m466 2 c0 -5 -7 -10 -16 -10 -8 0 -13 -4 -9 -9
3 -5 1 -12 -4 -15 -5 -4 -8 1 -7 10 1 8 9 20 17 25 18 11 19 11 19 -1z m50 6
c0 -2 -7 -7 -16 -10 -8 -3 -12 -2 -9 4 6 10 25 14 25 6z m-1452 -32 c0 -17 -3
-22 -8 -13 -5 6 -6 18 -3 26 8 19 11 16 11 -13z m160 0 c0 -17 -3 -22 -8 -13
-5 6 -6 18 -3 26 8 19 11 16 11 -13z m302 0 c0 -8 -4 -14 -10 -14 -5 0 -6 7
-3 17 5 12 3 14 -7 8 -9 -5 -11 -4 -6 4 9 14 26 5 26 -15z m75 -12 c-2 -3 3
-11 13 -19 15 -13 15 -13 -6 -3 -12 6 -20 14 -18 19 3 4 -4 13 -15 20 -18 11
-20 10 -17 -11 2 -18 -2 -23 -22 -25 -22 -1 -23 -1 -2 4 12 2 20 9 16 14 -3 6
-3 17 0 25 5 13 9 13 31 -2 14 -9 23 -19 20 -22z m731 -13 c14 1 10 -22 -4
-25 -7 -1 -8 0 -2 3 5 2 10 9 10 14 0 6 -5 7 -10 4 -6 -3 -13 1 -16 9 -3 9 -9
14 -13 12 -4 -3 -8 5 -8 17 -2 19 0 18 16 -7 10 -15 22 -27 27 -27z m83 28 c0
-9 -2 -8 -6 1 -2 6 -10 9 -15 6 -7 -4 -8 -2 -4 5 9 13 26 5 25 -12z m-1446 -7
c3 -11 1 -18 -4 -14 -5 3 -9 12 -9 20 0 20 7 17 13 -6z m31 -12 c-3 -4 -1 -8
5 -8 5 0 12 5 14 10 3 6 4 5 3 -2 -5 -23 -29 -14 -33 12 -2 18 -1 21 6 10 5
-8 7 -18 5 -22z m283 10 c-5 -31 -23 -34 -37 -6 -10 21 -10 21 3 6 15 -19 28
-24 26 -10 -2 14 1 32 6 32 3 0 3 -10 2 -22z m117 -10 c-3 -4 -1 -8 5 -8 5 0
12 5 14 10 3 6 4 5 3 -2 -5 -23 -29 -14 -33 12 -2 18 -1 21 6 10 5 -8 7 -18 5
-22z m240 0 c-3 -4 -1 -8 5 -8 5 0 12 5 14 10 3 6 4 5 3 -2 -5 -23 -29 -14
-33 12 -2 18 -1 21 6 10 5 -8 7 -18 5 -22z m304 6 c0 -17 -3 -22 -8 -13 -5 6
-6 18 -3 26 8 19 11 16 11 -13z m42 5 c0 -5 -8 -9 -17 -8 -11 0 -13 3 -5 6 6
2 9 10 6 15 -4 7 -2 8 4 4 7 -4 12 -11 12 -17z m56 -15 c-3 -8 -10 -12 -16 -9
-5 3 -11 -4 -11 -17 l-2 -23 -4 23 c-3 13 -9 19 -15 16 -6 -4 -8 -2 -4 4 3 6
15 9 26 7 15 -3 20 2 21 18 0 12 3 16 6 9 3 -7 2 -20 -1 -28z m-938 12 c-7 -8
-15 -12 -17 -11 -5 6 10 25 20 25 5 0 4 -6 -3 -14z m57 -7 c-4 -5 -1 -9 4 -9
6 0 11 6 12 13 0 9 2 9 6 -1 2 -6 10 -9 15 -6 6 4 8 3 5 -3 -11 -17 -50 -10
-53 10 -1 9 2 15 7 11 5 -3 7 -10 4 -15z m188 14 c-7 -2 -19 -2 -25 0 -7 3 -2
5 12 5 14 0 19 -2 13 -5z m117 -8 c0 -8 -2 -15 -4 -15 -2 0 -6 7 -10 15 -3 8
-1 15 4 15 6 0 10 -7 10 -15z m240 0 c0 -8 -2 -15 -4 -15 -2 0 -6 7 -10 15 -3
8 -1 15 4 15 6 0 10 -7 10 -15z m32 -7 c-7 -7 -12 -8 -12 -2 0 6 3 14 7 17 3
4 9 5 12 2 2 -3 -1 -11 -7 -17z m64 -3 c-3 -9 -10 -13 -16 -10 -5 3 -11 -4
-11 -17 l-2 -23 -4 23 c-3 13 -9 19 -15 16 -6 -4 -8 -2 -4 4 3 6 15 9 26 7 13
-3 20 2 20 12 0 9 3 14 6 10 4 -3 4 -13 0 -22z m73 15 c-6 -5 -18 -6 -26 -3
-19 8 -16 11 13 11 17 0 22 -3 13 -8z m219 -22 c4 1 7 -3 7 -10 0 -6 -6 -12
-13 -14 -7 -1 -8 0 -2 3 5 2 10 9 10 14 0 6 -4 8 -9 4 -6 -3 -15 5 -21 17 -11
22 -11 22 5 3 9 -11 19 -19 23 -17z m62 17 c0 -1 -12 -2 -26 -2 -17 0 -22 2
-13 7 10 7 39 3 39 -5z m109 5 c-6 -5 -18 -6 -26 -3 -19 8 -16 11 13 11 17 0
22 -3 13 -8z m131 -5 c0 -1 -12 -2 -26 -2 -17 0 -22 2 -13 7 10 7 39 3 39 -5z
m109 5 c-6 -5 -18 -6 -26 -3 -19 8 -16 11 13 11 17 0 22 -3 13 -8z m-1376 -21
c-8 -8 -13 -7 -18 2 -5 8 -4 10 3 5 7 -4 12 -2 12 5 0 7 3 9 7 6 4 -4 2 -12
-4 -18z m181 -8 c-10 -10 -21 -16 -24 -14 -3 3 4 11 14 19 28 20 33 17 10 -5z
m76 -7 c0 -2 -9 0 -20 6 -11 6 -20 13 -20 16 0 2 9 0 20 -6 11 -6 20 -13 20
-16z m466 14 c4 -7 3 -8 -4 -4 -7 4 -12 3 -12 -3 0 -5 6 -12 13 -14 9 -4 9 -6
0 -6 -15 -1 -26 16 -18 29 8 13 12 13 21 -2z m78 -11 c10 -9 12 -17 6 -17 -6
0 -13 7 -16 15 -4 8 -9 13 -13 11 -4 -3 -13 0 -21 5 -12 7 -10 8 6 6 12 -1 29
-11 38 -20z m310 15 c2 -4 -2 -16 -10 -27 -8 -10 -14 -14 -14 -9 0 6 6 16 13
23 10 11 9 13 -5 8 -10 -4 -18 -2 -18 3 0 12 27 13 34 2z m46 -12 c0 -5 -9
-14 -20 -20 -16 -9 -18 -8 -14 5 3 8 11 12 17 8 6 -4 8 0 4 11 -4 10 -3 15 3
11 6 -3 10 -10 10 -15z m194 12 c2 -4 -2 -16 -10 -27 -8 -10 -14 -14 -14 -9 0
6 6 16 13 23 10 11 9 13 -5 8 -10 -4 -18 -2 -18 3 0 12 27 13 34 2z m40 -17
c-4 -8 -10 -13 -14 -10 -5 3 -11 -1 -13 -7 -4 -10 -6 -10 -6 0 -1 7 6 15 14
18 8 4 12 11 8 17 -3 6 -1 7 5 3 6 -4 9 -13 6 -21z m-329 -4 c-3 -6 -11 -11
-16 -11 -5 0 -4 6 3 14 14 16 24 13 13 -3z m240 0 c-3 -6 -11 -11 -16 -11 -5
0 -4 6 3 14 14 16 24 13 13 -3z m-1400 -1 c-3 -5 -12 -10 -18 -10 -7 0 -6 4 3
10 19 12 23 12 15 0z m70 -9 c-3 -6 -11 -11 -16 -11 -5 0 -4 6 3 14 14 16 24
13 13 -3z m110 9 c-3 -5 -12 -10 -18 -10 -7 0 -6 4 3 10 19 12 23 12 15 0z
m35 0 c0 -5 -4 -10 -10 -10 -5 0 -10 5 -10 10 0 6 5 10 10 10 6 0 10 -4 10
-10z m100 2 c0 -4 -10 -9 -22 -9 -18 -2 -20 0 -8 7 18 12 30 13 30 2z m140 -1
c0 -3 -13 -7 -30 -7 -16 -1 -30 1 -30 5 0 3 14 7 30 7 17 1 30 -1 30 -5z m100
-1 c0 -5 -4 -10 -10 -10 -5 0 -10 5 -10 10 0 6 5 10 10 10 6 0 10 -4 10 -10z
m100 0 c0 -5 -4 -10 -10 -10 -5 0 -10 5 -10 10 0 6 5 10 10 10 6 0 10 -4 10
-10z m40 6 c0 -2 -7 -7 -16 -10 -8 -3 -12 -2 -9 4 6 10 25 14 25 6z m165 -6
c3 -6 -1 -7 -9 -4 -18 7 -21 14 -7 14 6 0 13 -4 16 -10z m90 -1 c11 -16 1 -19
-13 -3 -7 8 -8 14 -3 14 5 0 13 -5 16 -11z m168 4 c-16 -6 -17 -24 -1 -20 6 1
14 -6 16 -15 2 -10 -1 -18 -7 -18 -6 0 -7 7 -4 17 4 10 2 14 -5 9 -13 -8 -26
10 -17 24 3 6 12 10 18 9 9 0 9 -2 0 -6z m240 0 c-16 -6 -17 -24 -1 -20 6 1
14 -6 16 -15 2 -10 -1 -18 -7 -18 -6 0 -7 7 -4 17 4 10 2 14 -5 9 -13 -8 -26
10 -17 24 3 6 12 10 18 9 9 0 9 -2 0 -6z m-823 -29 c0 -2 -9 0 -20 6 -11 6
-20 13 -20 16 0 2 9 0 20 -6 11 -6 20 -13 20 -16z m171 -1 c-6 -11 -11 -13
-11 -5 0 7 -5 10 -12 6 -7 -4 -8 -3 -4 5 4 6 12 9 17 6 5 -4 9 -1 9 6 0 7 3
10 6 6 3 -3 1 -14 -5 -24z m-684 8 c-10 -4 -17 -11 -15 -16 2 -6 -8 -11 -22
-12 l-25 -2 25 8 c14 5 21 9 17 10 -16 2 4 21 21 20 15 0 15 -1 -1 -8z m87 2
c-15 -3 -20 -10 -17 -22 3 -10 1 -21 -4 -24 -6 -4 -9 33 -4 51 1 1 11 1 24 1
21 -2 21 -2 1 -6z m44 -18 c-3 -3 -9 2 -12 12 -6 14 -5 15 5 6 7 -7 10 -15 7
-18z m97 15 c4 -6 -1 -7 -11 -3 -12 4 -15 3 -10 -5 4 -7 2 -12 -3 -12 -12 0
-14 13 -4 23 9 10 21 9 28 -3z m99 3 c-15 -3 -20 -10 -17 -22 3 -10 1 -21 -4
-24 -6 -4 -9 33 -4 51 1 1 11 1 24 1 21 -2 21 -2 1 -6z m143 -24 c2 -18 1 -20
-6 -9 -5 8 -7 18 -5 22 3 4 0 8 -5 8 -6 0 -11 -5 -11 -12 0 -6 -3 -9 -6 -5 -9
9 6 29 19 24 5 -1 12 -14 14 -28z m115 2 c-3 -16 0 -21 9 -16 8 5 10 4 5 -4
-11 -17 -29 -2 -23 20 3 12 -2 19 -17 23 -17 3 -16 4 4 3 20 -2 24 -7 22 -26z
m188 19 c0 -5 -4 -10 -10 -10 -5 0 -10 5 -10 10 0 6 5 10 10 10 6 0 10 -4 10
-10z m98 -13 c2 -10 -1 -17 -7 -17 -6 0 -8 6 -5 14 4 11 0 13 -14 9 -11 -2
-22 -1 -25 4 -3 5 7 8 21 7 17 0 28 -7 30 -17z m142 13 c0 -5 -4 -10 -10 -10
-5 0 -10 5 -10 10 0 6 5 10 10 10 6 0 10 -4 10 -10z m135 -17 c-1 -22 -7 -28
-26 -30 -23 -1 -23 -1 -1 4 12 2 20 9 16 14 -5 9 1 39 9 39 1 0 2 -12 2 -27z
m105 17 c0 -5 -4 -10 -10 -10 -5 0 -10 5 -10 10 0 6 5 10 10 10 6 0 10 -4 10
-10z m135 -17 c-1 -22 -7 -28 -26 -30 -23 -1 -23 -1 -1 4 12 2 20 9 16 14 -5
9 1 39 9 39 1 0 2 -12 2 -27z m-1221 2 c3 -8 1 -15 -4 -15 -6 0 -10 7 -10 15
0 8 2 15 4 15 2 0 6 -7 10 -15z m84 -11 c0 -17 -3 -22 -8 -13 -5 6 -6 18 -3
26 8 19 11 16 11 -13z m35 13 c3 -8 -1 -14 -8 -14 -7 0 -11 6 -8 14 3 7 6 13
8 13 2 0 5 -6 8 -13z m120 0 c3 -8 2 -20 -3 -26 -5 -9 -7 -4 -7 13 0 29 2 32
10 13z m240 0 c3 -8 2 -20 -3 -26 -5 -9 -7 -4 -7 13 0 29 2 32 10 13z m-620
-14 c-6 -16 -5 -17 13 -3 18 14 18 14 5 -2 -7 -10 -17 -15 -22 -12 -12 7 -11
34 1 34 5 0 6 -8 3 -17z m80 0 c-5 -12 -3 -14 7 -8 9 5 11 4 6 -4 -4 -6 -12
-9 -17 -6 -12 8 -12 35 1 35 5 0 6 -7 3 -17z m240 0 c-5 -12 -3 -14 7 -8 9 5
11 4 6 -4 -4 -6 -12 -9 -17 -6 -12 8 -12 35 1 35 5 0 6 -7 3 -17z m207 3 c0
-22 -13 -26 -35 -10 -10 8 -14 14 -9 14 6 0 16 -6 23 -12 11 -11 13 -10 8 5
-4 9 -2 17 3 17 6 0 10 -6 10 -14z m179 4 c-6 -5 -18 -6 -26 -3 -19 8 -16 11
13 11 17 0 22 -3 13 -8z m81 2 c0 -5 -7 -9 -15 -9 -8 0 -15 4 -15 9 0 4 7 8
15 8 8 0 15 -4 15 -8z m102 -1 c-8 -4 -13 -12 -11 -17 1 -5 -6 -10 -17 -11
-18 -3 -18 -2 1 6 11 5 16 10 12 10 -13 1 3 21 16 21 8 0 8 -3 -1 -9z m57 -1
c-6 -5 -18 -6 -26 -3 -19 8 -16 11 13 11 17 0 22 -3 13 -8z m81 0 c0 -5 -7 -7
-15 -4 -8 4 -15 8 -15 10 0 2 7 4 15 4 8 0 15 -4 15 -10z m159 0 c-6 -5 -18
-6 -26 -3 -19 8 -16 11 13 11 17 0 22 -3 13 -8z m81 0 c0 -5 -7 -7 -15 -4 -8
4 -15 8 -15 10 0 2 7 4 15 4 8 0 15 -4 15 -10z m140 0 c0 -5 -4 -10 -10 -10
-5 0 -10 5 -10 10 0 6 5 10 10 10 6 0 10 -4 10 -10z m-662 -25 c-3 -3 -9 2
-12 12 -6 14 -5 15 5 6 7 -7 10 -15 7 -18z m240 0 c-3 -3 -9 2 -12 12 -6 14
-5 15 5 6 7 -7 10 -15 7 -18z m240 0 c-3 -3 -9 2 -12 12 -6 14 -5 15 5 6 7 -7
10 -15 7 -18z m-1020 -8 c2 -9 -1 -17 -7 -17 -6 0 -8 6 -5 13 3 8 -3 13 -16
13 -15 0 -20 -6 -18 -21 4 -27 -39 -30 -53 -4 -6 13 -6 19 1 19 5 0 10 -6 10
-13 0 -7 9 -13 20 -14 11 -1 18 3 14 8 -11 18 4 36 28 34 13 -1 24 -9 26 -18z
m222 10 c0 -5 -7 -7 -15 -3 -8 3 -15 0 -15 -6 0 -6 -3 -9 -6 -5 -3 3 -4 10 0
15 7 12 36 11 36 -1z m257 -17 c2 -18 1 -21 -6 -10 -5 8 -8 17 -5 21 2 4 -5 7
-16 6 -12 -1 -19 -6 -16 -14 3 -7 1 -13 -4 -13 -11 0 -14 23 -5 32 3 3 15 5
27 4 14 -1 22 -9 25 -26z m43 10 c7 -14 7 -20 0 -20 -5 0 -10 7 -10 16 0 9 -5
12 -12 8 -7 -4 -8 -3 -4 4 10 16 14 15 26 -8z m98 11 c11 -7 10 -9 -3 -14 -11
-5 -14 -3 -9 5 5 8 2 9 -10 5 -10 -4 -15 -3 -11 3 7 12 16 12 33 1z m96 -21
c0 -13 -6 -25 -14 -28 -9 -2 -11 0 -5 5 6 4 10 15 10 23 0 8 -4 19 -10 23 -6
5 -4 7 5 5 8 -3 14 -15 14 -28z m46 0 c0 -23 -16 -35 -26 -19 -4 8 -3 9 4 5 8
-5 12 1 12 14 0 13 -4 19 -12 14 -7 -4 -8 -3 -4 5 10 16 26 4 26 -19z m83 24
c-7 -3 -9 -12 -6 -20 3 -8 1 -14 -5 -14 -8 0 -9 16 -3 38 1 1 7 2 14 1 9 0 9
-2 0 -5z m114 -25 c2 -18 1 -20 -6 -9 -5 8 -8 17 -5 21 2 4 -1 10 -6 12 -6 3
-5 4 1 3 7 -1 14 -13 16 -27z m43 11 c6 -11 7 -20 2 -20 -6 0 -12 9 -15 20 -3
11 -3 20 -1 20 2 0 8 -9 14 -20z m95 10 c4 -6 -1 -7 -11 -3 -13 5 -15 3 -9 -7
5 -9 4 -11 -4 -6 -6 4 -9 12 -6 17 8 12 22 12 30 -1z m140 0 c3 -5 1 -10 -4
-10 -6 0 -11 5 -11 10 0 6 2 10 4 10 3 0 8 -4 11 -10z m-58 -21 c2 -16 -1 -19
-9 -11 -5 5 -7 15 -4 21 10 15 12 14 13 -10z m30 -11 c-3 -7 -5 -2 -5 12 0 14
2 19 5 13 2 -7 2 -19 0 -25z m-1432 12 c-3 -5 -11 -10 -16 -10 -6 0 -7 5 -4
10 3 6 11 10 16 10 6 0 7 -4 4 -10z m91 -2 c4 -6 3 -8 -4 -4 -5 3 -13 0 -15
-6 -3 -8 -6 -6 -6 5 -1 19 14 23 25 5z m176 -5 c-6 -9 -17 -18 -26 -19 -9 -1
-14 2 -10 7 3 5 10 7 15 4 5 -4 9 1 9 9 0 9 5 16 10 16 7 0 8 -6 2 -17z m53 7
c-3 -5 -11 -10 -16 -10 -6 0 -7 5 -4 10 3 6 11 10 16 10 6 0 7 -4 4 -10z m57
-9 c-1 -8 7 -11 20 -9 19 2 23 -2 23 -22 0 -21 -4 -24 -24 -22 -13 2 -21 0
-18 -5 3 -5 -3 -17 -14 -26 -10 -9 -19 -13 -19 -7 0 5 7 13 16 18 9 5 17 13
17 18 1 5 10 9 20 8 9 0 17 7 17 16 0 11 -8 16 -22 16 -13 -1 -22 4 -20 12 1
6 -2 12 -8 12 -5 0 -10 -5 -10 -12 0 -6 -3 -9 -6 -5 -9 9 6 29 19 24 7 -3 11
-10 9 -16z m146 1 c2 -7 -1 -12 -8 -12 -6 0 -9 4 -6 9 4 5 1 12 -4 14 -6 3 -5
4 2 3 6 -1 14 -8 16 -14z m47 8 c3 -5 2 -10 -4 -10 -5 0 -13 5 -16 10 -3 6 -2
10 4 10 5 0 13 -4 16 -10z m45 -6 c0 -8 4 -13 8 -10 4 2 14 1 22 -4 11 -7 9
-9 -8 -7 -23 1 -54 37 -32 37 5 0 10 -7 10 -16z m185 6 c3 -5 2 -10 -4 -10 -5
0 -13 5 -16 10 -3 6 -2 10 4 10 5 0 13 -4 16 -10z m228 3 c-7 -2 -13 -9 -13
-14 0 -6 4 -8 8 -5 4 2 14 0 22 -5 12 -7 10 -8 -7 -6 -12 2 -25 6 -29 9 -9 9
5 28 19 27 9 0 9 -2 0 -6z m251 -1 c2 -4 0 -14 -6 -22 -8 -12 -9 -12 -5 2 3 9
1 19 -6 22 -9 3 -9 5 0 5 6 1 14 -3 17 -7z m-1234 -11 c0 -17 -21 -24 -33 -12
-9 9 -7 10 7 5 13 -5 17 -4 12 4 -4 7 -2 12 3 12 6 0 11 -4 11 -9z m-80 -10
c0 -5 -7 -11 -14 -14 -10 -4 -13 -1 -9 9 6 15 23 19 23 5z m186 -44 c5 -1 8
-10 7 -20 -2 -10 1 -16 5 -13 5 3 16 -4 25 -15 9 -10 13 -19 7 -19 -5 0 -13 8
-19 18 -5 9 -13 17 -18 17 -4 0 -7 8 -6 18 2 10 -2 15 -7 12 -6 -3 -13 1 -16
9 -3 9 -9 14 -13 12 -4 -3 -8 5 -8 17 -2 19 0 18 16 -7 10 -15 22 -28 27 -29z
m125 30 c-10 -9 -11 -8 -5 6 3 10 9 15 12 12 3 -3 0 -11 -7 -18z m179 3 c-6
-11 -13 -20 -16 -20 -2 0 0 9 6 20 6 11 13 20 16 20 2 0 0 -9 -6 -20z m143 5
c4 -8 3 -16 -1 -19 -4 -3 -9 4 -9 15 -2 23 3 25 10 4z m87 5 c0 -5 -5 -10 -11
-10 -5 0 -7 5 -4 10 3 6 8 10 11 10 2 0 4 -4 4 -10z m38 -16 c0 -17 -3 -22 -8
-13 -5 6 -6 18 -3 26 8 19 11 16 11 -13z m122 16 c-8 -5 -18 -6 -24 -3 -5 4
-7 -1 -3 -10 3 -10 2 -17 -3 -17 -10 0 -14 23 -5 31 2 3 14 5 27 6 17 2 19 0
8 -7z m50 -4 c-1 -5 4 -13 12 -17 10 -7 10 -9 0 -9 -7 0 -10 -5 -6 -12 4 -6 3
-8 -4 -5 -5 4 -9 15 -8 25 2 9 -4 20 -13 24 -14 7 -13 7 2 5 10 -1 17 -6 17
-11z m219 -9 c0 -9 -2 -8 -6 1 -2 6 -10 9 -15 6 -7 -4 -8 -2 -4 5 9 13 26 5
25 -12z m51 13 c0 -5 -7 -6 -17 -3 -10 4 -14 2 -9 -5 3 -6 2 -13 -3 -16 -7 -5
-8 11 -2 32 3 7 31 0 31 -8z m176 -13 c1 -9 -2 -15 -7 -11 -5 3 -7 9 -4 14 3
5 -3 8 -14 7 -12 -1 -19 -8 -18 -19 1 -11 7 -16 14 -14 7 3 13 1 13 -5 0 -19
-33 -5 -36 15 -4 27 2 33 27 32 13 -1 23 -8 25 -19z m-1142 -2 c-10 -8 -23
-15 -28 -15 -6 0 -1 7 10 15 10 8 23 15 28 15 6 0 1 -7 -10 -15z m-194 -3 c0
-5 -7 -9 -15 -9 -8 0 -15 4 -15 9 0 4 7 8 15 8 8 0 15 -4 15 -8z m79 -2 c-6
-5 -18 -6 -26 -3 -19 8 -16 11 13 11 17 0 22 -3 13 -8z m241 0 c0 -5 -7 -7
-15 -4 -8 4 -15 8 -15 10 0 2 7 4 15 4 8 0 15 -4 15 -10z m28 -14 c-10 -7 -14
-17 -10 -21 4 -5 1 -5 -6 -1 -11 6 -10 12 5 26 10 9 20 15 23 13 3 -3 -3 -10
-12 -17z m211 14 c-6 -5 -18 -6 -26 -3 -19 8 -16 11 13 11 17 0 22 -3 13 -8z
m213 -5 c-2 -5 5 -13 15 -17 17 -7 17 -8 0 -5 -10 1 -18 7 -17 12 1 6 -9 13
-22 17 -22 7 -22 7 2 5 14 -1 24 -6 22 -12z m86 -2 c-2 -9 -14 -18 -28 -20
-18 -2 -21 -1 -10 6 8 5 18 7 24 4 5 -4 7 1 3 10 -3 10 -2 17 4 17 6 0 9 -7 7
-17z m112 2 c0 -1 -12 -2 -26 -2 -17 0 -22 2 -13 7 10 7 39 3 39 -5z m36 0 c4
-8 10 -13 14 -10 4 3 15 -6 24 -20 15 -22 15 -26 2 -31 -8 -3 -19 -3 -25 0 -5
4 -11 -2 -14 -11 -3 -14 -4 -14 -3 2 1 15 7 19 24 17 21 -3 22 -1 11 17 -7 11
-16 18 -19 16 -4 -2 -14 5 -23 16 -9 10 -12 19 -7 19 6 0 13 -7 16 -15z m84 0
c0 -1 -12 -2 -26 -2 -17 0 -22 2 -13 7 10 7 39 3 39 -5z m86 -2 c-3 -19 -36
-32 -36 -14 0 6 7 8 15 4 9 -3 15 -2 14 3 -2 13 0 24 5 24 2 0 3 -8 2 -17z
m78 2 c-1 -5 6 -16 15 -23 14 -11 13 -11 -7 -2 -12 6 -20 15 -17 20 3 5 -5 11
-17 13 -21 5 -20 5 2 4 14 -1 25 -6 24 -12z m166 5 c0 -5 -4 -10 -10 -10 -5 0
-10 5 -10 10 0 6 5 10 10 10 6 0 10 -4 10 -10z m-1165 -9 c3 -5 0 -13 -6 -17
-7 -4 -9 -3 -5 4 3 5 0 13 -6 15 -9 4 -10 6 -1 6 6 1 14 -3 18 -8z m367 2 c-6
-2 -9 -10 -6 -15 4 -7 2 -8 -5 -4 -13 9 -5 26 12 25 9 0 8 -2 -1 -6z m65 -18
c-9 -7 -15 -14 -12 -17 3 -2 -1 -5 -9 -5 -8 0 -12 6 -9 14 3 7 12 13 20 13 8
0 11 5 7 12 -5 7 -3 8 6 3 10 -6 10 -11 -3 -20z m525 11 c7 4 8 2 4 -5 -9 -13
-26 -5 -25 12 0 9 2 8 6 -1 2 -6 10 -9 15 -6z m-1155 -26 c2 -18 1 -21 -6 -10
-5 8 -7 18 -5 22 3 4 -4 8 -16 8 -13 0 -19 -4 -14 -12 4 -7 3 -8 -5 -4 -17 11
-2 28 21 24 14 -2 22 -12 25 -28z m58 8 c5 4 5 1 1 -5 -11 -20 -23 -15 -29 10
-5 20 -5 20 7 5 7 -10 17 -14 21 -10z m156 -9 c-5 -13 -10 -19 -10 -12 -1 15
10 45 15 40 3 -2 0 -15 -5 -28z m209 21 c-8 -5 -18 -6 -24 -3 -5 4 -7 -1 -3
-10 3 -10 2 -17 -3 -17 -10 0 -14 23 -5 31 2 3 14 5 27 6 17 2 19 0 8 -7z m53
-8 c-2 -7 7 -11 20 -9 14 1 21 -3 19 -12 -2 -8 3 -11 13 -8 8 4 15 2 15 -4 0
-6 -8 -9 -17 -7 -10 2 -17 9 -16 16 2 6 -5 11 -15 9 -9 -1 -18 2 -19 8 -1 5
-10 13 -20 17 -16 7 -16 8 2 5 11 -2 19 -8 18 -15z m467 -17 c0 -5 -5 -3 -10
5 -5 8 -10 20 -10 25 0 6 5 3 10 -5 5 -8 10 -19 10 -25z m-800 10 c0 -8 -4
-15 -10 -15 -5 0 -7 7 -4 15 4 8 8 15 10 15 2 0 4 -7 4 -15z m40 -20 c0 -5 -5
-3 -10 5 -5 8 -10 20 -10 25 0 6 5 3 10 -5 5 -8 10 -19 10 -25z m398 9 c0 -17
-3 -22 -8 -13 -5 6 -6 18 -3 26 8 19 11 16 11 -13z m273 3 c-10 -9 -11 -8 -5
6 3 10 9 15 12 12 3 -3 0 -11 -7 -18z m28 -4 c-12 -15 -12 -16 4 -10 9 3 17 2
17 -3 0 -11 -23 -14 -33 -4 -3 3 -1 14 6 25 6 10 13 16 16 14 2 -3 -2 -12 -10
-22z m151 6 c0 -14 -17 -10 -23 5 -4 10 -1 13 9 9 7 -3 14 -9 14 -14z m62 -13
c10 1 21 -3 25 -8 3 -7 1 -8 -5 -4 -7 4 -12 5 -12 2 0 -2 -3 -12 -6 -21 -4
-10 -2 -15 7 -13 7 2 15 -5 17 -14 2 -10 -1 -18 -7 -18 -6 0 -8 7 -5 15 4 10
0 13 -15 10 -11 -2 -24 1 -27 7 -4 6 -3 8 3 5 6 -4 14 0 17 9 8 22 8 24 -6 22
-7 -2 -14 8 -15 22 -2 22 -1 22 5 4 4 -13 14 -20 24 -18z m185 12 c-2 -12 -10
-24 -18 -26 -11 -3 -12 -2 -1 6 8 5 13 12 13 16 -2 15 -1 26 4 26 3 0 3 -10 2
-22z m-1341 0 c4 -6 3 -8 -4 -4 -5 3 -13 0 -15 -6 -3 -8 -6 -6 -6 5 -1 19 14
23 25 5z m318 4 c2 -4 0 -14 -6 -22 -8 -12 -9 -11 -4 4 5 14 2 17 -9 12 -9 -3
-13 -2 -10 4 7 12 22 13 29 2z m184 -9 c-2 -9 -14 -18 -28 -20 -18 -2 -21 -1
-10 6 8 5 18 7 24 4 5 -4 7 1 3 10 -3 10 -2 17 4 17 6 0 9 -7 7 -17z m217 -3
c-17 -11 -26 -20 -20 -20 5 0 4 -5 -2 -11 -8 -8 -16 -8 -30 0 -16 11 -15 11 6
5 16 -4 21 -3 17 5 -4 6 0 14 8 17 9 3 14 9 12 13 -3 4 5 8 17 8 18 2 17 -1
-8 -17z m60 2 c-3 -3 -11 0 -18 7 -9 10 -8 11 6 5 10 -3 15 -9 12 -12z m115
-4 c11 -22 10 -22 -4 -4 -16 20 -16 20 -32 0 -14 -18 -15 -18 -4 4 6 12 15 22
20 22 5 0 14 -10 20 -22z m350 14 c0 -4 -10 -9 -22 -9 -18 -2 -20 0 -8 7 18
12 30 13 30 2z m156 -4 c4 -7 4 -10 -1 -6 -4 4 -14 0 -21 -10 -12 -15 -12 -15
-7 6 6 24 18 29 29 10z m-976 -13 c5 3 11 1 14 -4 4 -5 -2 -8 -11 -7 -9 2 -18
8 -19 15 -1 6 0 7 3 1 2 -5 9 -8 13 -5z m-380 -8 c0 -5 -7 -6 -16 -3 -12 4
-15 2 -10 -9 3 -8 1 -15 -4 -15 -10 0 -14 23 -5 32 9 8 35 5 35 -5z m175 3
c-3 -5 -1 -10 6 -10 7 0 10 -3 6 -6 -9 -9 -28 6 -22 17 4 5 8 9 11 9 3 0 2 -4
-1 -10z m178 -3 c3 -8 2 -20 -3 -26 -5 -9 -7 -4 -7 13 0 29 2 32 10 13z m362
2 c11 -16 1 -19 -13 -3 -7 8 -8 14 -3 14 5 0 13 -5 16 -11z m358 -2 c3 -8 2
-20 -3 -26 -5 -9 -7 -4 -7 13 0 29 2 32 10 13z m161 6 c-15 -3 -20 -10 -17
-22 6 -22 -12 -37 -23 -20 -5 8 -3 9 5 4 9 -5 12 -1 11 11 -4 31 -1 34 23 33
21 -2 21 -2 1 -6z m-940 -35 c-3 -4 -1 -8 5 -8 5 0 12 5 14 10 3 6 4 5 3 -2
-5 -23 -29 -14 -33 12 -2 18 -1 21 6 10 5 -8 7 -18 5 -22z m283 11 c-1 -21
-37 -49 -37 -29 0 5 7 10 15 10 8 0 14 3 14 8 -2 13 1 32 5 32 3 0 4 -9 3 -21z
m183 6 c0 -8 -4 -15 -8 -15 -5 0 -9 7 -9 15 0 8 4 15 9 15 4 0 8 -7 8 -15z
m40 -20 c0 -5 -5 -3 -10 5 -5 8 -10 20 -10 25 0 6 5 3 10 -5 5 -8 10 -19 10
-25z m358 9 c0 -17 -3 -22 -8 -13 -5 6 -6 18 -3 26 8 19 11 16 11 -13z m-1142
-1 c-2 -11 -13 -19 -27 -20 l-24 -2 25 8 c14 5 21 9 17 10 -5 1 -5 6 -2 11 9
15 14 12 11 -7z m73 7 c-6 -5 -18 -6 -26 -3 -19 8 -16 11 13 11 17 0 22 -3 13
-8z m159 -2 c-2 -4 6 -14 17 -23 19 -16 19 -16 -3 -5 -12 6 -20 15 -17 20 3 4
0 11 -5 13 -7 4 -6 5 1 4 6 -2 9 -6 7 -9z m215 -8 c-10 -11 -19 -20 -21 -20
-1 0 2 9 8 20 6 11 15 20 20 20 6 0 2 -9 -7 -20z m57 10 c0 -5 -8 -10 -17 -10
-15 0 -16 2 -3 10 19 12 20 12 20 0z m174 -5 c-4 -10 0 -13 15 -10 26 5 35
-10 21 -32 -10 -16 -10 -16 -5 3 4 17 1 21 -17 20 -14 -1 -24 6 -26 17 -2 9 1
17 7 17 6 0 8 -7 5 -15z m143 0 c0 -8 -4 -15 -9 -15 -4 0 -8 7 -8 15 0 8 4 15
8 15 5 0 9 -7 9 -15z m35 -7 c-7 -7 -12 -8 -12 -2 0 14 12 26 19 19 2 -3 -1
-11 -7 -17z m68 2 c-6 -11 -15 -18 -20 -15 -5 3 -11 -5 -13 -17 -5 -21 -5 -20
-4 2 1 14 6 23 10 20 5 -3 13 3 18 13 14 24 22 21 9 -3z m103 3 c-3 -7 -9 -10
-14 -7 -14 8 -11 21 5 21 8 0 12 -6 9 -14z m210 2 c-3 -10 0 -15 8 -13 9 2 13
-5 12 -19 -2 -13 2 -22 8 -20 6 1 14 -5 16 -13 4 -12 3 -12 -5 -2 -5 8 -13 14
-18 15 -5 1 -8 10 -7 19 2 10 -3 17 -9 15 -7 -1 -14 6 -16 16 -2 9 1 17 7 17
6 0 8 -7 4 -15z m77 0 c0 -1 -12 -2 -26 -2 -17 0 -22 2 -13 7 10 7 39 3 39 -5z
m-934 -32 c-3 -4 -6 -1 -6 6 0 7 -4 10 -9 6 -5 -3 -13 0 -17 6 -4 8 -3 9 4 5
7 -4 12 -1 12 6 0 8 5 6 11 -5 6 -10 8 -21 5 -24z m-276 17 c0 -5 -7 -7 -15
-4 -10 4 -13 0 -10 -15 5 -25 -12 -38 -28 -22 -9 9 -8 11 5 6 12 -5 16 -2 14
12 -2 10 -1 21 1 26 6 10 33 9 33 -3z m74 -2 c-3 -5 -10 -6 -15 -3 -5 4 -9 1
-9 -4 0 -6 6 -11 13 -12 9 0 9 -2 -1 -6 -6 -2 -9 -10 -5 -16 3 -7 2 -8 -2 -4
-10 9 -16 38 -10 47 2 4 11 7 19 7 8 0 13 -4 10 -9z m283 -8 c-1 -11 -5 -20
-9 -20 -10 0 -10 4 -2 24 8 22 13 20 11 -4z m131 6 c-10 -7 -16 -15 -13 -17 2
-3 -6 -6 -17 -6 -19 -2 -18 0 7 17 34 22 49 26 23 6z m167 4 c-3 -5 0 -10 7
-10 10 0 10 -2 0 -9 -8 -4 -13 -12 -11 -17 1 -5 -5 -10 -14 -12 -9 -2 -17 1
-17 7 0 6 6 8 14 5 10 -4 14 0 12 13 -3 18 1 33 10 33 3 0 2 -4 -1 -10z m240
1 c3 -5 0 -13 -6 -17 -8 -5 -9 -3 -4 6 6 10 4 12 -8 7 -10 -3 -17 -2 -17 3 0
13 27 13 35 1z m-880 -20 c-3 -6 -11 -11 -16 -11 -5 0 -4 6 3 14 14 16 24 13
13 -3z m292 -13 c-3 -7 -5 -2 -5 12 0 14 2 19 5 13 2 -7 2 -19 0 -25z m902 3
c0 -10 -2 -11 -6 -3 -2 6 -8 10 -12 8 -4 -3 -8 1 -8 8 0 8 6 12 14 9 7 -3 13
-13 12 -22z m-1112 5 c-3 -8 -2 -17 4 -20 5 -2 4 -3 -2 -2 -15 3 -21 36 -7 36
6 0 8 -6 5 -14z m123 4 c0 -5 -4 -10 -10 -10 -5 0 -10 5 -10 10 0 6 5 10 10
10 6 0 10 -4 10 -10z m291 -27 c-6 -10 -11 -13 -11 -5 0 7 -5 10 -12 6 -7 -4
-8 -3 -4 5 4 6 12 8 18 5 8 -5 9 -1 4 12 -5 14 -4 16 4 7 9 -8 9 -16 1 -30z
m43 22 c-4 -8 -8 -15 -10 -15 -2 0 -4 7 -4 15 0 8 4 15 10 15 5 0 7 -7 4 -15z
m146 5 c0 -5 -4 -10 -10 -10 -5 0 -10 5 -10 10 0 6 5 10 10 10 6 0 10 -4 10
-10z m40 6 c0 -2 -7 -7 -16 -10 -8 -3 -12 -2 -9 4 6 10 25 14 25 6z m215 -5
c-3 -2 3 -10 13 -18 16 -13 15 -13 -3 -4 -43 22 -51 30 -28 28 12 0 20 -3 18
-6z m106 -9 c-5 -10 -20 -18 -33 -19 -17 -2 -19 0 -8 7 8 5 18 6 22 4 4 -3 8
2 8 10 0 9 5 16 10 16 7 0 7 -6 1 -18z m54 8 c-3 -5 -11 -10 -16 -10 -6 0 -7
5 -4 10 3 6 11 10 16 10 6 0 7 -4 4 -10z m-700 -21 c-8 -12 -35 -12 -35 1 0 5
7 6 17 3 12 -5 14 -3 8 7 -5 9 -4 11 4 6 6 -4 9 -12 6 -17z m345 11 c0 -5 -7
-10 -16 -10 -9 0 -12 -5 -8 -12 5 -7 3 -8 -6 -3 -10 6 -9 11 5 22 22 16 25 16
25 3z m177 -32 c2 -17 0 -19 -7 -8 -5 8 -6 18 -4 22 3 4 -2 8 -10 8 -9 0 -16
5 -16 10 0 22 36 -9 37 -32z m-1025 24 c-13 -4 -23 -11 -22 -17 1 -5 -4 -11
-12 -13 -9 -2 -8 0 2 7 8 6 11 11 7 11 -5 0 -5 5 -2 10 3 6 16 10 28 9 22 -1
22 -1 -1 -7z m122 -8 c3 -8 2 -12 -4 -9 -6 3 -10 10 -10 16 0 14 7 11 14 -7z
m121 8 c-11 -4 -20 -15 -20 -24 0 -10 -4 -18 -9 -17 -5 0 -13 -5 -18 -13 -8
-10 -9 -10 -5 2 2 8 10 14 16 12 7 -1 12 6 11 15 -3 30 -1 33 23 32 20 -1 21
-1 2 -7z m119 -7 c-5 -11 -1 -14 12 -9 16 5 16 4 4 -5 -17 -12 -36 1 -26 18
10 16 16 13 10 -4z m66 -5 c6 -11 8 -20 6 -20 -3 0 -10 9 -16 20 -6 11 -8 20
-6 20 3 0 10 -9 16 -20z m500 10 c0 -5 -4 -10 -10 -10 -5 0 -10 5 -10 10 0 6
5 10 10 10 6 0 10 -4 10 -10z m237 -9 c0 -11 -5 -18 -9 -15 -4 3 -5 11 -1 19
7 21 12 19 10 -4z m-844 -4 c3 -8 2 -20 -3 -26 -5 -9 -7 -4 -7 13 0 29 2 32
10 13z m156 -20 c22 6 37 -12 20 -23 -8 -5 -9 -3 -4 5 5 9 0 12 -16 9 -18 -2
-24 2 -25 17 -1 13 0 14 3 4 3 -11 11 -15 22 -12z m54 20 c3 -8 -1 -14 -9 -14
-15 0 -18 9 -7 20 9 9 10 9 16 -6z m30 0 c3 -8 2 -20 -3 -26 -5 -9 -7 -4 -7
13 0 29 2 32 10 13z m203 4 c-4 -5 0 -12 6 -14 8 -3 6 -6 -4 -6 -18 -1 -24 10
-11 22 9 10 15 8 9 -2z m37 -4 c3 -8 2 -20 -3 -26 -5 -9 -7 -4 -7 13 0 29 2
32 10 13z m-779 -12 c-4 -10 0 -13 15 -10 11 2 24 -1 27 -7 4 -7 2 -8 -4 -4
-7 4 -12 1 -12 -8 0 -9 -4 -16 -10 -16 -5 0 -7 7 -3 15 3 10 1 15 -8 13 -7 -2
-15 5 -17 15 -2 9 1 17 7 17 6 0 8 -7 5 -15z m76 -1 c0 -2 -7 -4 -15 -4 -8 0
-15 4 -15 10 0 5 7 7 15 4 8 -4 15 -8 15 -10z m90 1 c0 -1 -12 -2 -26 -2 -17
0 -22 2 -13 7 10 7 39 3 39 -5z m73 -2 c-5 -12 -3 -14 7 -8 9 5 11 4 6 -4 -4
-6 -12 -9 -17 -6 -12 8 -12 35 1 35 5 0 6 -7 3 -17z m386 7 c-6 -5 -18 -6 -26
-3 -19 8 -16 11 13 11 17 0 22 -3 13 -8z m73 -14 c10 1 21 -3 25 -8 3 -7 1 -8
-5 -4 -7 4 -12 5 -12 2 0 -2 -3 -12 -6 -21 -4 -10 -2 -15 7 -13 8 2 14 -7 16
-22 2 -22 1 -22 -5 -4 -4 13 -14 20 -24 18 -10 -1 -21 3 -25 8 -3 7 -1 8 5 4
7 -4 12 -5 12 -2 0 2 3 12 6 21 4 10 2 15 -7 13 -7 -2 -14 6 -16 17 -2 16 -1
16 5 4 4 -9 15 -15 24 -13z m167 14 c-6 -5 -18 -6 -26 -3 -19 8 -16 11 13 11
17 0 22 -3 13 -8z m81 0 c0 -5 -7 -7 -15 -4 -8 4 -15 8 -15 10 0 2 7 4 15 4 8
0 15 -4 15 -10z m249 0 c-6 -5 -18 -6 -26 -3 -19 8 -16 11 13 11 17 0 22 -3
13 -8z m-74 -9 c3 -5 0 -13 -6 -17 -7 -4 -9 -3 -5 4 3 5 0 13 -6 15 -9 4 -10
6 -1 6 6 1 14 -3 18 -8z m-1015 -11 c0 -5 -4 -10 -10 -10 -5 0 -10 5 -10 10 0
6 5 10 10 10 6 0 10 -4 10 -10z m226 -2 c5 -7 3 -8 -6 -3 -10 6 -12 4 -7 -8 3
-10 2 -17 -3 -17 -11 0 -13 23 -3 33 9 9 11 9 19 -5z m72 -6 c2 -7 9 -9 14 -6
7 4 8 2 4 -4 -10 -17 -26 -15 -26 4 0 8 -4 13 -8 10 -4 -2 -14 0 -22 5 -11 7
-9 8 9 6 14 -2 27 -9 29 -15z m182 8 c-8 -5 -18 -6 -24 -3 -5 4 -7 -1 -3 -10
3 -10 2 -17 -3 -17 -10 0 -14 23 -5 31 2 3 14 5 27 6 17 2 19 0 8 -7z m75 -12
c5 4 5 1 1 -5 -10 -18 -26 -16 -26 3 0 9 -5 12 -12 8 -7 -5 -8 -3 -3 6 6 10
11 10 20 -3 7 -9 16 -13 20 -9z m165 12 c-8 -5 -18 -6 -24 -3 -5 4 -7 -1 -3
-10 3 -10 2 -17 -3 -17 -10 0 -14 23 -5 31 2 3 14 5 27 6 17 2 19 0 8 -7z m60
-10 c7 -14 7 -20 0 -20 -5 0 -10 7 -10 16 0 9 -5 12 -12 8 -7 -4 -8 -3 -4 4
10 16 14 15 26 -8z m100 10 c0 -5 -7 -6 -17 -3 -12 5 -14 3 -8 -7 5 -9 4 -11
-4 -6 -6 4 -9 12 -6 17 8 12 35 12 35 -1z m36 -6 c-5 -12 -2 -15 11 -10 14 6
15 4 6 -5 -14 -14 -34 -3 -26 16 3 8 7 15 10 15 3 0 2 -7 -1 -16z m186 9 c-6
-2 -10 -9 -7 -13 3 -5 1 -11 -4 -14 -7 -5 -8 11 -2 32 1 1 7 2 14 1 9 0 9 -2
-1 -6z m38 -3 c0 -5 -2 -10 -4 -10 -3 0 -8 5 -11 10 -3 6 -1 10 4 10 6 0 11
-4 11 -10z m-1114 -15 c-11 -8 -25 -15 -30 -15 -6 1 0 7 14 15 32 19 40 18 16
0z m924 -22 c-11 -17 -11 -17 -6 0 3 10 6 24 7 30 0 9 2 9 5 0 3 -7 0 -20 -6
-30z m45 -3 c-4 -6 -10 -8 -15 -5 -4 3 -10 -2 -14 -10 -3 -8 -10 -15 -16 -15
-5 0 -2 9 7 19 9 11 21 17 26 14 5 -3 6 5 3 18 -6 20 -5 21 4 6 6 -9 8 -22 5
-27z m39 29 c-4 -8 1 -9 17 -5 20 6 21 5 6 -4 -19 -12 -41 -4 -32 11 4 5 8 9
11 9 3 0 2 -5 -2 -11z m-1154 -3 c0 -3 -4 -8 -10 -11 -5 -3 -10 -1 -10 4 0 6
5 11 10 11 6 0 10 -2 10 -4z m93 -10 c3 -8 3 -17 0 -20 -10 -10 -33 -7 -33 4
0 5 8 6 18 3 15 -6 15 -5 3 10 -7 9 -9 17 -3 17 5 0 12 -6 15 -14z m137 4 c-8
-5 -19 -10 -25 -10 -5 0 -3 5 5 10 8 5 20 10 25 10 6 0 3 -5 -5 -10z m60 -6
c0 -8 4 -13 9 -9 5 3 12 1 15 -4 4 -5 -1 -8 -10 -7 -19 3 -41 36 -24 36 5 0
10 -7 10 -16z m88 -1 c-2 -9 -14 -18 -28 -20 -18 -2 -21 -1 -10 6 8 5 18 7 24
4 5 -4 7 1 3 10 -3 10 -2 17 4 17 6 0 9 -7 7 -17z m152 1 c0 -8 4 -13 9 -9 5
3 12 1 15 -4 4 -5 -2 -8 -11 -7 -9 2 -19 8 -21 14 -2 7 -9 9 -14 6 -7 -4 -8
-2 -4 4 10 17 26 15 26 -4z m88 -1 c-2 -9 -14 -18 -28 -20 -18 -2 -21 -1 -10
6 8 5 18 7 24 4 5 -4 7 1 3 10 -3 10 -2 17 4 17 6 0 9 -7 7 -17z m152 1 c0 -8
4 -13 9 -9 5 3 12 1 15 -4 4 -5 -2 -8 -11 -7 -9 2 -19 8 -21 14 -2 7 -9 9 -14
6 -7 -4 -8 -2 -4 4 10 17 26 15 26 -4z m88 -1 c-2 -9 -14 -18 -28 -20 -18 -2
-21 -1 -10 6 8 5 18 7 24 4 5 -4 7 1 3 10 -3 10 -2 17 4 17 6 0 9 -7 7 -17z
m97 7 c3 -5 2 -10 -4 -10 -5 0 -13 5 -16 10 -3 6 -2 10 4 10 5 0 13 -4 16 -10z
m-773 -14 c7 4 8 2 4 -5 -9 -13 -26 -5 -25 12 0 9 2 8 6 -1 2 -6 10 -9 15 -6z
m76 2 c-2 -6 -15 -13 -29 -15 -18 -2 -20 -1 -9 6 8 5 18 7 22 5 4 -3 8 0 8 5
0 6 3 11 6 11 3 0 4 -5 2 -12z m737 -7 c-3 -6 -11 -8 -17 -5 -7 5 -9 1 -5 -9
3 -10 2 -17 -4 -17 -6 0 -9 8 -7 18 2 9 10 16 16 15 7 -2 12 2 12 9 0 6 3 9 6
5 3 -3 3 -11 -1 -16z m-597 -17 c0 -17 -3 -22 -8 -13 -5 6 -6 18 -3 26 8 19
11 16 11 -13z m99 -5 c1 -20 1 -21 -3 -3 -4 15 -11 20 -23 17 -10 -3 -21 -1
-24 4 -3 5 7 8 21 7 21 0 27 -6 29 -25z m141 5 c0 -17 -3 -22 -8 -13 -5 6 -6
18 -3 26 8 19 11 16 11 -13z m240 0 c0 -17 -3 -22 -8 -13 -5 6 -6 18 -3 26 8
19 11 16 11 -13z m59 -5 c-3 -12 2 -19 17 -23 18 -4 17 -4 -3 -3 -19 2 -25 8
-25 29 -1 14 2 24 7 21 5 -3 7 -14 4 -24z m-868 -12 c10 3 21 1 24 -4 3 -5 -7
-8 -21 -7 -19 0 -27 6 -28 20 -1 13 0 14 3 3 3 -11 11 -15 22 -12z m51 2 c0
-6 -4 -7 -10 -4 -5 3 -10 11 -10 16 0 6 5 7 10 4 6 -3 10 -11 10 -16z m34 6
c-4 -8 -8 -15 -10 -15 -2 0 -4 7 -4 15 0 8 4 15 10 15 5 0 7 -7 4 -15z m66 -2
c0 -3 -7 -2 -16 1 -12 5 -15 2 -10 -11 6 -14 4 -15 -5 -6 -14 14 -3 34 16 26
8 -3 15 -7 15 -10z m43 -3 c-10 -11 -19 -20 -21 -20 -1 0 2 9 8 20 6 11 15 20
20 20 6 0 2 -9 -7 -20z m177 9 c0 -15 -18 -19 -23 -6 -3 8 1 14 9 14 8 0 14
-4 14 -8z m240 2 c0 -6 -5 -13 -12 -17 -6 -4 -8 -3 -4 4 3 5 0 13 -6 15 -8 3
-6 6 5 6 9 1 17 -3 17 -8z m233 -8 c-3 -7 -6 -13 -8 -13 -2 0 -5 6 -8 13 -3 8
1 14 8 14 7 0 11 -6 8 -14z m137 13 c0 -2 -7 -6 -15 -10 -8 -3 -15 -1 -15 4 0
6 7 10 15 10 8 0 15 -2 15 -4z m120 0 c0 -2 -7 -6 -15 -10 -8 -3 -15 -1 -15 4
0 6 7 10 15 10 8 0 15 -2 15 -4z m-868 -13 c-6 -2 -9 -10 -6 -15 4 -7 2 -8 -5
-4 -13 9 -5 26 12 25 9 0 8 -2 -1 -6z m240 0 c-6 -2 -9 -10 -6 -15 4 -7 2 -8
-5 -4 -13 9 -5 26 12 25 9 0 8 -2 -1 -6z m240 0 c-6 -2 -9 -10 -6 -15 4 -7 2
-8 -5 -4 -13 9 -5 26 12 25 9 0 8 -2 -1 -6z m70 -7 c7 4 8 2 4 -5 -4 -6 -12
-9 -17 -6 -5 4 -9 1 -9 -6 0 -7 -2 -10 -5 -7 -3 3 -2 13 2 24 4 11 8 13 11 6
2 -7 9 -9 14 -6z m-472 -1 c0 -2 -9 -9 -20 -15 -12 -6 -20 -7 -20 -1 0 5 8 12
18 14 9 3 18 5 20 6 1 0 2 -1 2 -4z m100 -5 c0 -5 -7 -7 -15 -3 -10 3 -15 1
-13 -7 2 -7 -4 -15 -12 -17 -13 -4 -13 -3 0 6 8 6 11 11 7 11 -5 0 -5 5 -2 10
8 13 35 13 35 0z m128 -4 c-10 -7 -16 -15 -13 -18 3 -2 -1 -5 -9 -5 -19 0 -9
25 12 30 27 7 28 7 10 -7z m112 4 c0 -5 -7 -6 -17 -3 -12 5 -14 3 -8 -7 5 -9
4 -11 -4 -6 -6 4 -9 12 -6 17 8 12 35 12 35 -1z m296 -13 c1 -9 -2 -17 -8 -17
-6 0 -8 6 -5 14 3 8 2 17 -4 20 -5 2 -4 3 2 2 7 -1 13 -10 15 -19z m118 15 c2
-4 -2 -16 -10 -27 -8 -10 -14 -14 -14 -9 0 6 6 16 13 23 10 11 9 13 -5 8 -10
-4 -18 -2 -18 3 0 12 27 13 34 2z m-907 -34 c-3 -7 -5 -2 -5 12 0 14 2 19 5
13 2 -7 2 -19 0 -25z m89 -4 c-3 -8 -10 -13 -15 -10 -5 3 -11 -1 -15 -9 -3 -8
-10 -15 -16 -15 -5 0 -2 9 7 19 9 11 20 18 25 15 4 -3 8 5 9 18 0 13 3 17 6
10 3 -7 2 -20 -1 -28z m242 10 c0 -17 -3 -22 -8 -13 -5 6 -6 18 -3 26 8 19 11
16 11 -13z m238 -11 c-4 -9 -9 -13 -13 -9 -4 3 -15 -6 -25 -21 -10 -16 -18
-24 -18 -20 0 16 32 57 41 51 5 -3 9 5 10 18 0 13 3 17 6 10 3 -7 2 -20 -1
-29z m285 14 c-10 -9 -11 -8 -5 6 3 10 9 15 12 12 3 -3 0 -11 -7 -18z m-941 3
c0 -5 -4 -10 -10 -10 -5 0 -10 5 -10 10 0 6 5 10 10 10 6 0 10 -4 10 -10z
m140 0 c0 -5 -4 -10 -10 -10 -5 0 -10 5 -10 10 0 6 5 10 10 10 6 0 10 -4 10
-10z m105 0 c-3 -5 -12 -10 -18 -10 -7 0 -6 4 3 10 19 12 23 12 15 0z m35 0
c0 -5 -4 -10 -10 -10 -5 0 -10 5 -10 10 0 6 5 10 10 10 6 0 10 -4 10 -10z
m216 -9 c-15 -10 -28 -22 -29 -27 -1 -5 -10 -8 -20 -7 -10 2 -16 -1 -12 -6 3
-6 -3 -14 -12 -20 -17 -9 -17 -11 2 -25 11 -8 16 -16 10 -16 -5 0 1 -7 15 -15
14 -8 20 -14 14 -15 -5 0 -19 7 -30 15 -10 8 -15 15 -10 15 6 0 1 7 -10 15
-17 14 -17 16 -3 28 9 6 18 17 20 22 2 6 12 9 22 8 10 -2 15 2 12 7 -3 6 1 13
9 16 9 3 14 9 12 13 -3 4 5 8 17 8 19 2 18 0 -7 -16z m99 9 c-3 -5 -12 -10
-18 -10 -7 0 -6 4 3 10 19 12 23 12 15 0z m16 -17 c-12 -20 -14 -14 -5 12 4 9
9 14 11 11 3 -2 0 -13 -6 -23z m114 17 c-3 -5 -12 -10 -18 -10 -7 0 -6 4 3 10
19 12 23 12 15 0z m35 0 c0 -5 -4 -10 -10 -10 -5 0 -10 5 -10 10 0 6 5 10 10
10 6 0 10 -4 10 -10z m35 -8 c-3 -3 -11 0 -18 7 -9 10 -8 11 6 5 10 -3 15 -9
12 -12z m50 8 c-3 -5 -12 -10 -18 -10 -7 0 -6 4 3 10 19 12 23 12 15 0z m70
-10 c0 -7 -11 -15 -25 -17 -18 -2 -21 -1 -10 6 8 5 18 7 22 5 4 -3 8 -1 8 5 0
5 -5 12 -10 14 -6 3 -5 4 2 3 7 -2 13 -9 13 -16z m-864 -17 c-6 -11 -11 -13
-11 -5 0 7 -5 10 -12 6 -7 -4 -8 -3 -4 5 4 6 12 9 17 6 5 -4 9 -1 9 6 0 7 3
10 6 6 3 -3 1 -14 -5 -24z m315 14 c8 3 14 1 14 -5 0 -14 -33 -8 -36 7 -1 6 0
7 2 2 3 -6 12 -7 20 -4z m186 -1 c6 4 8 2 5 -4 -4 -5 -16 -8 -28 -5 -16 4 -17
8 -7 14 7 5 14 4 16 -1 2 -6 9 -7 14 -4z m-612 -6 c0 -5 -2 -10 -4 -10 -3 0
-8 5 -11 10 -3 6 -1 10 4 10 6 0 11 -4 11 -10z m175 -11 c-4 -5 -12 -9 -18 -8
-9 0 -8 2 1 6 6 2 9 10 6 15 -4 7 -2 8 5 4 6 -4 9 -12 6 -17z m842 -1 c2 -17
0 -19 -7 -8 -5 8 -6 18 -4 22 8 12 10 10 11 -14z m-977 2 c0 -5 -8 -10 -17
-10 -15 0 -16 2 -3 10 19 12 20 12 20 0z m33 -3 c3 -8 2 -20 -3 -26 -5 -9 -7
-4 -7 13 0 29 2 32 10 13z m201 -7 c-6 -6 -15 -5 -24 1 -13 9 -12 10 3 5 9 -3
17 0 17 6 0 6 3 8 7 5 4 -4 2 -12 -3 -17z m46 5 c0 -8 -4 -15 -10 -15 -5 0 -7
7 -4 15 4 8 8 15 10 15 2 0 4 -7 4 -15z m40 -20 c0 -5 -5 -3 -10 5 -5 8 -10
20 -10 25 0 6 5 3 10 -5 5 -8 10 -19 10 -25z m96 13 c-3 -24 -28 -32 -32 -10
-1 7 0 8 3 2 5 -12 24 -14 22 -2 -2 14 1 32 6 32 3 0 3 -10 1 -22z m298 2 c-6
-6 -15 -5 -24 1 -13 9 -12 10 3 5 9 -3 17 0 17 6 0 6 3 8 7 5 4 -4 2 -12 -3
-17z m46 5 c0 -8 -4 -15 -10 -15 -5 0 -7 7 -4 15 4 8 8 15 10 15 2 0 4 -7 4
-15z m40 5 c0 -5 -4 -10 -10 -10 -5 0 -10 5 -10 10 0 6 5 10 10 10 6 0 10 -4
10 -10z m40 -5 c0 -8 -4 -15 -8 -15 -5 0 -9 7 -9 15 0 8 4 15 9 15 4 0 8 -7 8
-15z m40 -6 c0 -6 -4 -7 -10 -4 -5 3 -10 11 -10 16 0 6 5 7 10 4 6 -3 10 -11
10 -16z m-526 -4 c-4 -8 -8 -15 -10 -15 -2 0 -4 7 -4 15 0 8 4 15 10 15 5 0 7
-7 4 -15z m180 2 c-3 -9 3 -13 18 -13 14 1 22 -4 20 -12 -2 -10 4 -12 20 -7
20 5 21 4 5 -5 -19 -12 -41 -4 -31 12 4 6 -3 8 -17 6 -16 -2 -25 3 -27 15 -2
9 1 17 7 17 6 0 8 -6 5 -13z m76 9 c0 -2 -7 -6 -15 -10 -8 -3 -15 -1 -15 4 0
6 7 10 15 10 8 0 15 -2 15 -4z m333 -11 c-3 -9 -8 -14 -10 -11 -3 3 -2 9 2 15
9 16 15 13 8 -4z m-869 -17 c-4 -5 -8 -7 -12 -4 -3 3 -11 -2 -19 -12 -13 -15
-13 -15 -4 4 5 11 17 21 25 21 8 0 13 -4 10 -9z m64 -9 c3 -11 2 -12 -6 -1 -5
8 -12 13 -16 12 -4 -1 -12 1 -19 4 -6 2 -1 3 12 2 14 -2 27 -9 29 -17z m74 11
c1 -3 -3 -14 -10 -25 -6 -11 -12 -15 -12 -9 0 5 5 15 11 21 9 9 7 12 -10 10
-15 -1 -20 -6 -16 -17 5 -11 3 -12 -6 -3 -6 6 -9 16 -5 21 6 9 45 11 48 2z
m61 -30 c-3 -3 -10 3 -17 12 -7 10 -17 14 -21 10 -5 -4 -5 -1 -1 6 6 11 12 10
26 -5 9 -10 15 -20 13 -23z m240 27 c3 -8 2 -20 -3 -26 -5 -9 -7 -4 -7 13 0
29 2 32 10 13z m167 3 c-8 -5 -17 -7 -21 -4 -4 2 -7 -5 -6 -16 1 -12 6 -19 14
-16 7 3 13 1 13 -5 0 -19 -33 -5 -36 15 -4 26 0 31 28 33 17 2 19 0 8 -7z m51
-22 c-10 -11 -11 -9 -5 6 6 15 4 17 -6 11 -9 -6 -11 -4 -5 4 5 9 10 10 18 2 8
-8 7 -14 -2 -23z m86 0 c-4 -14 -2 -18 9 -14 8 3 14 1 14 -5 0 -6 -8 -9 -17
-7 -12 2 -17 11 -15 26 3 21 1 22 -17 11 -11 -7 -19 -17 -18 -23 1 -5 -6 -12
-15 -14 -10 -2 -18 1 -18 7 0 6 7 8 15 4 9 -3 15 -1 13 5 -4 13 34 42 45 35 5
-3 6 -14 4 -25z m38 22 c-3 -5 -2 -10 4 -10 6 0 7 -8 4 -17 -6 -15 -7 -14 -13
3 -7 18 -4 34 6 34 3 0 2 -4 -1 -10z m65 0 c0 -5 -8 -6 -17 -3 -16 6 -16 5 -4
-10 7 -9 9 -17 3 -17 -12 0 -23 26 -15 34 10 10 33 7 33 -4z m-812 -31 c3 -11
2 -11 -7 1 -10 13 -12 13 -21 0 -5 -8 -10 -10 -10 -4 0 27 31 30 38 3z m232
11 c0 -5 -4 -10 -10 -10 -5 0 -10 5 -10 10 0 6 5 10 10 10 6 0 10 -4 10 -10z
m40 0 c0 -5 -4 -10 -10 -10 -5 0 -10 5 -10 10 0 6 5 10 10 10 6 0 10 -4 10
-10z m100 -11 c0 -6 -4 -7 -10 -4 -5 3 -10 11 -10 16 0 6 5 7 10 4 6 -3 10
-11 10 -16z m220 11 c0 -5 -2 -10 -4 -10 -3 0 -8 5 -11 10 -3 6 -1 10 4 10 6
0 11 -4 11 -10z m-140 -21 c0 -5 -4 -9 -8 -9 -5 0 -9 7 -9 15 0 8 4 12 9 9 4
-3 8 -9 8 -15z m63 0 c-8 -8 -13 -7 -18 2 -5 8 -4 10 3 5 7 -4 12 -2 12 5 0 7
3 9 7 6 4 -4 2 -12 -4 -18z m-463 1 c0 -5 -4 -10 -10 -10 -5 0 -10 5 -10 10 0
6 5 10 10 10 6 0 10 -4 10 -10z m97 -21 c-3 -12 2 -19 17 -23 18 -4 17 -4 -3
-3 -19 2 -25 8 -25 29 -1 14 2 24 7 21 5 -3 7 -14 4 -24z m63 9 c0 -6 -8 -4
-17 3 -15 12 -16 12 -10 -3 3 -10 2 -18 -3 -18 -11 0 -14 23 -4 33 8 8 34 -3
34 -15z m78 8 c-7 -8 -15 -12 -17 -11 -5 6 10 25 20 25 5 0 4 -6 -3 -14z m468
-18 c-9 -12 -16 -19 -16 -15 0 11 24 47 28 42 2 -2 -3 -14 -12 -27z m-512 7
c3 -8 1 -15 -4 -15 -6 0 -10 7 -10 15 0 8 2 15 4 15 2 0 6 -7 10 -15z m342
-21 c-3 -8 -10 -12 -16 -9 -5 3 -10 0 -11 -7 0 -10 -2 -10 -6 0 -2 6 -10 9
-15 6 -7 -4 -8 -2 -4 4 3 6 15 9 26 7 15 -3 20 2 21 18 0 12 3 16 6 9 3 -7 2
-20 -1 -28z m53 3 c10 3 21 1 24 -4 3 -5 -7 -8 -21 -7 -19 0 -27 6 -28 20 -1
13 0 14 3 3 3 -11 11 -15 22 -12z m-649 19 c0 -3 -4 -8 -10 -11 -5 -3 -10 -1
-10 4 0 6 5 11 10 11 6 0 10 -2 10 -4z m109 -6 c-6 -5 -18 -6 -26 -3 -19 8
-16 11 13 11 17 0 22 -3 13 -8z m209 -7 c-2 -12 -12 -18 -26 -17 -18 1 -22 -3
-17 -15 5 -12 3 -13 -6 -4 -16 16 -3 33 22 28 15 -3 19 0 15 10 -3 8 -1 15 5
15 6 0 9 -8 7 -17z m182 9 c0 -5 -7 -9 -15 -9 -8 0 -15 4 -15 9 0 4 7 8 15 8
8 0 15 -4 15 -8z m28 -16 c-10 -7 -14 -17 -10 -21 4 -5 1 -5 -6 -1 -11 6 -10
12 5 26 10 9 20 15 23 13 3 -3 -3 -10 -12 -17z m182 14 c12 -7 10 -9 -8 -7
-12 0 -22 5 -22 9 0 11 12 10 30 -2z m-252 -25 c-3 -3 -9 2 -12 12 -6 14 -5
15 5 6 7 -7 10 -15 7 -18z m-420 -10 c-3 -3 -9 2 -12 12 -6 14 -5 15 5 6 7 -7
10 -15 7 -18z m35 10 c-3 -9 -8 -14 -10 -11 -3 3 -2 9 2 15 9 16 15 13 8 -4z
m50 9 c-7 -3 -9 -12 -6 -20 3 -8 1 -14 -5 -14 -8 0 -9 16 -3 38 1 1 7 2 14 1
9 0 9 -2 0 -5z m112 -25 c-3 -15 0 -19 10 -15 8 3 15 1 15 -5 0 -13 -31 -7
-32 6 -1 6 -8 16 -17 23 -14 11 -14 11 3 5 14 -5 17 -3 11 7 -5 8 -4 11 3 6 6
-3 9 -16 7 -27z m103 5 c0 -17 -3 -22 -8 -13 -5 6 -6 18 -3 26 8 19 11 16 11
-13z m104 3 c6 -11 5 -17 -2 -17 -6 0 -8 -5 -4 -12 4 -6 3 -8 -4 -5 -5 4 -8
17 -4 29 3 14 1 19 -6 14 -6 -3 -13 -2 -16 3 -4 5 1 8 10 7 9 -1 20 -10 26
-19z m291 8 c-3 -9 -8 -14 -10 -11 -3 3 -2 9 2 15 9 16 15 13 8 -4z m-30 -8
c3 -7 -3 -13 -14 -14 -15 -1 -16 1 -6 12 15 18 14 18 20 2z m-303 -10 c0 -8
-3 -16 -6 -20 -8 -8 -34 3 -34 15 0 6 8 4 17 -3 15 -12 16 -12 10 4 -3 9 -2
17 3 17 6 0 10 -6 10 -13z m95 3 c3 -5 2 -10 -4 -10 -5 0 -13 5 -16 10 -3 6
-2 10 4 10 5 0 13 -4 16 -10z m111 -13 c8 3 14 1 14 -5 0 -14 -33 -8 -36 7 -1
6 0 7 2 2 3 -6 12 -7 20 -4z m-439 -4 c-9 -2 -14 -9 -11 -15 4 -7 2 -8 -5 -4
-15 10 -4 26 17 25 15 -1 15 -2 -1 -6z m309 -19 c-10 -25 11 -24 22 1 10 22
14 24 31 13 11 -7 18 -14 16 -17 -3 -2 -12 2 -22 10 -15 12 -16 12 -10 -4 4
-10 3 -16 -2 -13 -5 3 -12 -1 -15 -10 -5 -13 -9 -14 -21 -4 -7 6 -11 19 -8 27
5 12 3 14 -7 8 -9 -5 -11 -4 -6 4 10 15 29 3 22 -15z m103 -14 c0 -10 -3 -8
-9 5 -12 27 -12 43 0 25 5 -8 9 -22 9 -30z m-302 -2 c-3 -7 -5 -2 -5 12 0 14
2 19 5 13 2 -7 2 -19 0 -25z m-42 4 c-3 -3 -11 0 -18 7 -9 10 -8 11 6 5 10 -3
15 -9 12 -12z m189 10 c2 -4 -4 -8 -14 -8 -10 0 -16 4 -14 8 3 4 9 8 14 8 5 0
11 -4 14 -8z m-49 -12 c-3 -5 -1 -10 6 -10 7 0 10 -3 6 -6 -9 -9 -28 6 -22 17
4 5 8 9 11 9 3 0 2 -4 -1 -10z m78 -3 c3 -8 -1 -14 -8 -14 -7 0 -11 6 -8 14 3
7 6 13 8 13 2 0 5 -6 8 -13z m-133 -7 c0 -5 -5 -10 -11 -10 -5 0 -7 5 -4 10 3
6 8 10 11 10 2 0 4 -4 4 -10z m939 -59 c31 -17 44 -56 31 -97 -15 -44 -40 -53
-40 -14 0 46 -28 39 -32 -7 -2 -32 -6 -37 -23 -35 -11 2 -32 16 -47 32 -67 72
21 169 111 121z m-33 -342 c4 -8 9 -8 17 0 18 18 27 13 27 -14 0 -15 -8 -29
-22 -36 -18 -10 -24 -8 -39 10 -10 12 -15 29 -12 36 6 18 19 19 29 4z"/>
</g>
</svg>
